<svg xmlns="http://www.w3.org/2000/svg" viewBox="0 0 553 147.05"><path d="M138.47 93.83h-15.75V21.45h15.75v72.39zm66.44 0h-15.4V64.29c0-4.27-.77-7.47-2.3-9.62-1.53-2.14-3.83-3.21-6.89-3.21s-5.42 1.15-7.37 3.44-2.92 5.2-2.92 8.73v30.19h-15.46V40.87h15.46v8.43h.19c1.95-3.26 4.35-5.7 7.2-7.33 2.84-1.61 6.13-2.42 9.87-2.42 5.85 0 10.25 1.82 13.19 5.47 2.95 3.65 4.43 9.1 4.43 16.33v32.46zm46.22-.86c-1.61.71-3.4 1.24-5.37 1.6-1.97.34-3.98.53-6.04.53-5.65 0-9.92-1.38-12.79-4.14s-4.32-6.87-4.32-12.32V52.29h-8.63V40.88h8.63V28.97l15.4-4.44v16.36h12.06V52.3h-12.06v25.29c0 2.15.43 3.71 1.27 4.69s2.14 1.46 3.89 1.46c.91 0 1.76-.11 2.58-.32.81-.22 1.58-.52 2.32-.89l3.07 10.44zm56.3-21.3h-34.88c.27 4.07 1.6 7.13 3.98 9.17 2.39 2.04 5.69 3.05 9.9 3.05 1.54 0 3.66-.44 6.33-1.33 2.67-.9 5.29-2.3 7.84-4.22l6.72 8.99c-3.6 2.69-7.27 4.67-11 5.94-3.74 1.25-7.86 1.89-12.36 1.89-8.46 0-15.01-2.37-19.69-7.12-4.68-4.74-7.02-11.38-7.02-19.89s2.47-15.37 7.42-20.64c4.95-5.29 11.2-7.92 18.78-7.92s13.17 2.22 17.49 6.66 6.48 10.83 6.48 19.18v6.26zm-14.34-9.69c0-4.16-.83-7.19-2.47-9.06-1.64-1.87-4.07-2.79-7.27-2.79-2.79 0-5.19 1.07-7.2 3.21-2 2.13-3.22 5.01-3.66 8.65h20.6zm57.6-8.23c-.68-.17-1.37-.3-2.07-.38-.71-.08-1.48-.13-2.32-.13-4.21 0-7.38 1.33-9.52 4.01-2.14 2.68-3.2 6.38-3.2 11.13v25.44h-15.46V40.87h15.46v9.89h.19c1.24-3.6 3.05-6.3 5.41-8.11 2.36-1.79 5.21-2.69 8.58-2.69.81 0 1.59.04 2.35.15s1.54.23 2.35.41l-1.76 13.22zm41.09 16.61c0 8.14-2.12 14.3-6.36 18.45-4.24 4.16-10.29 6.23-18.17 6.23-2.19 0-4.4-.22-6.63-.66-2.24-.44-4.54-1.17-6.89-2.22l4.79-12.06c1.34.64 2.58 1.12 3.67 1.44s2.31.48 3.66.48c3.37 0 5.85-.91 7.47-2.73 1.61-1.82 2.42-4.82 2.42-8.98l.31-48.87h15.7l.04 48.91zm64.97 23.47h-15.39V85.7h-.26c-1.99 3.13-4.34 5.49-7.05 7.07-2.7 1.58-5.77 2.37-9.21 2.37-6.15 0-10.77-1.87-13.82-5.58-3.07-3.71-4.6-9.29-4.6-16.73V40.88h15.4v30.49c0 3.93.77 6.9 2.32 8.88 1.54 1.99 3.89 2.98 7.02 2.98s5.57-1.08 7.42-3.25 2.78-5.11 2.78-8.81V40.89h15.39v52.95zm9.65-4.44l6.41-10.35c1.82 1.38 3.93 2.55 6.33 3.51 2.4.95 5.11 1.44 8.11 1.44 2.25 0 4.09-.42 5.52-1.23 1.44-.83 2.15-2.08 2.15-3.76 0-1.34-.55-2.42-1.67-3.21s-3.16-1.53-6.15-2.2c-6.57-1.42-11.28-3.39-14.14-5.94-2.86-2.54-4.3-6.08-4.3-10.63 0-5.31 2.12-9.55 6.33-12.72s9.42-4.74 15.57-4.74c3.16 0 6.17.41 9.02 1.23s5.51 2.05 8.01 3.66l-5.81 9.99c-2.16-1.34-4.16-2.32-6.04-2.94-1.87-.63-3.8-.94-5.77-.94-2.29 0-4.13.44-5.51 1.32-1.38.87-2.07 2-2.07 3.38 0 1.5.63 2.63 1.9 3.35 1.27.73 3.68 1.46 7.25 2.2 6.08 1.29 10.48 3.23 13.15 5.83 2.68 2.61 4.01 6.17 4.01 10.68 0 5.35-2.02 9.65-6.06 12.89-4.04 3.25-9.37 4.87-16 4.87-3.67 0-7.15-.47-10.45-1.39-3.29-.92-6.56-2.37-9.79-4.31h.01zm84.75 3.58c-1.61.71-3.4 1.24-5.37 1.6-1.97.34-3.98.53-6.04.53-5.65 0-9.92-1.38-12.79-4.14-2.88-2.76-4.32-6.87-4.32-12.32V52.29H514V40.88h8.63V28.97l15.4-4.44v16.36h12.06V52.3h-12.06v25.29c0 2.15.43 3.71 1.27 4.69s2.14 1.46 3.89 1.46c.91 0 1.76-.11 2.58-.32.81-.22 1.58-.52 2.32-.89l3.07 10.44zm-419.1 21.07h-7.23v5.77h6.67v2.77h-6.67v8.09h-3.29v-19.43h10.52v2.78zm5-.08c-.59 0-1.07-.18-1.46-.55-.38-.37-.58-.83-.58-1.37s.19-1.03.58-1.39c.39-.37.87-.54 1.46-.54s1.07.17 1.46.54c.39.36.59.83.59 1.39s-.19 1.01-.59 1.38c-.39.36-.87.54-1.46.54zm1.59 16.72h-3.23v-14.21h3.23v14.21zm17.49-1.34c0 2.45-.68 4.37-2.05 5.77-1.37 1.4-3.31 2.1-5.84 2.1-1.01 0-1.94-.11-2.79-.3-.85-.18-1.72-.49-2.59-.91l1.03-2.29c.74.34 1.44.59 2.13.75.68.15 1.43.23 2.25.23 1.46 0 2.6-.43 3.41-1.28.81-.85 1.22-2.05 1.22-3.6v-1.37h-.07c-.52.85-1.17 1.49-1.95 1.92-.78.44-1.69.64-2.73.64-1.78 0-3.21-.63-4.28-1.91-1.08-1.27-1.61-2.96-1.61-5.11 0-2.37.59-4.27 1.77-5.7 1.18-1.45 2.75-2.16 4.7-2.16.92 0 1.73.17 2.4.53s1.24.91 1.69 1.63h.07v-1.83h3.22v12.87zm-3.21-5.26v-1.67c0-1.02-.33-1.91-.99-2.63-.64-.73-1.48-1.09-2.5-1.09-1.21 0-2.16.45-2.85 1.32-.69.87-1.03 2.15-1.03 3.84 0 1.46.32 2.59.97 3.39.64.82 1.54 1.22 2.68 1.22s2.02-.42 2.69-1.22c.69-.82 1.03-1.87 1.03-3.16zm20.14 6.6h-3.21v-8.14c0-1.29-.23-2.25-.7-2.9-.47-.63-1.18-.95-2.14-.95s-1.76.37-2.39 1.09-.95 1.67-.95 2.83v8.07h-3.23v-20.54h3.23v8.58h.06c.54-.87 1.18-1.53 1.94-1.95.75-.43 1.61-.63 2.59-.63 1.61 0 2.82.48 3.61 1.45.81.98 1.19 2.43 1.19 4.36v8.74zm11.85-.2c-.42.18-.84.31-1.29.39-.46.09-.94.13-1.45.13-1.33 0-2.35-.34-3.06-1.05-.71-.7-1.06-1.75-1.06-3.13v-7.84h-2.38v-2.51h2.38v-3.22l3.22-.98v4.2h3.4v2.51h-3.4v7.57c0 .7.13 1.21.39 1.5.26.31.64.47 1.18.47.26 0 .51-.03.74-.09.24-.06.45-.14.64-.24l.68 2.29zm4.41-16.52c-.59 0-1.07-.18-1.46-.55-.38-.37-.58-.83-.58-1.37s.19-1.03.58-1.39c.39-.37.87-.54 1.46-.54s1.07.17 1.46.54c.39.36.59.83.59 1.39s-.19 1.01-.59 1.38c-.39.36-.87.54-1.46.54zm1.58 16.72h-3.23v-14.21h3.23v14.21zm17.17 0h-3.22v-8.02c0-1.32-.24-2.31-.73-2.98s-1.21-1-2.15-1-1.77.37-2.4 1.1c-.63.73-.94 1.65-.94 2.77v8.12h-3.23v-14.21h3.23v2.3h.06c.52-.87 1.16-1.53 1.94-1.98.77-.44 1.65-.66 2.67-.66 1.57 0 2.75.49 3.56 1.48s1.21 2.44 1.21 4.37v8.69zm17.04-1.34c0 2.45-.68 4.37-2.05 5.77-1.37 1.4-3.31 2.1-5.84 2.1-1.01 0-1.94-.11-2.79-.3-.85-.18-1.72-.49-2.59-.91l1.03-2.29c.74.34 1.44.59 2.13.75.68.15 1.43.23 2.25.23 1.46 0 2.6-.43 3.41-1.28.81-.85 1.22-2.05 1.22-3.6v-1.37h-.07c-.52.85-1.17 1.49-1.95 1.92-.78.44-1.69.64-2.73.64-1.78 0-3.21-.63-4.28-1.91-1.08-1.27-1.61-2.96-1.61-5.11 0-2.37.59-4.27 1.77-5.7 1.18-1.45 2.75-2.16 4.7-2.16.92 0 1.73.17 2.4.53.68.36 1.24.91 1.69 1.63h.07v-1.83h3.22v12.87zm-3.2-5.26v-1.67c0-1.02-.33-1.91-.99-2.63-.64-.73-1.48-1.09-2.5-1.09-1.21 0-2.16.45-2.85 1.32s-1.03 2.15-1.03 3.84c0 1.46.32 2.59.97 3.39.64.82 1.54 1.22 2.68 1.22s2.02-.42 2.69-1.22c.69-.82 1.03-1.87 1.03-3.16zm18.82 6.6h-3.31v-19.43h3.31v19.43zm25.97 0h-3.22v-8.14c0-1.33-.22-2.31-.66-2.92-.45-.62-1.15-.93-2.13-.93-.85 0-1.58.39-2.15 1.15-.58.76-.87 1.7-.87 2.8v8.04h-3.22v-8.34c0-1.22-.23-2.13-.7-2.74-.46-.61-1.15-.92-2.07-.92s-1.62.37-2.19 1.09c-.55.73-.83 1.69-.83 2.9v8.01h-3.24v-14.21h3.24v2.24h.06c.47-.82 1.1-1.45 1.88-1.9.77-.46 1.64-.68 2.62-.68s1.82.24 2.53.74c.7.49 1.22 1.18 1.53 2.07.54-.94 1.19-1.64 1.99-2.12.79-.46 1.7-.69 2.76-.69 1.55 0 2.71.47 3.5 1.44.78.95 1.17 2.39 1.17 4.3v8.81zm7.34-1.89h-.06v8.27h-3.23v-20.6h3.23v2.34h.06c.54-.9 1.22-1.57 2.03-2.02.79-.44 1.7-.66 2.73-.66 1.84 0 3.28.63 4.3 1.9 1.01 1.28 1.53 2.98 1.53 5.13 0 2.38-.59 4.28-1.76 5.72-1.17 1.43-2.74 2.14-4.71 2.14-.89 0-1.68-.18-2.36-.55-.69-.37-1.28-.92-1.75-1.67zm-.1-5.74v1.57c0 1.1.33 2.03.99 2.75.66.74 1.49 1.1 2.52 1.1 1.22 0 2.16-.47 2.84-1.4.68-.92 1.01-2.23 1.01-3.9 0-1.44-.31-2.54-.93-3.31-.61-.77-1.48-1.16-2.6-1.16s-2.08.42-2.77 1.22c-.7.82-1.06 1.87-1.06 3.14zm26.53 7.63h-3.23v-2.22h-.07c-.49.85-1.1 1.48-1.84 1.91-.74.44-1.59.64-2.54.64-1.67 0-2.91-.49-3.75-1.49-.84-.99-1.25-2.5-1.25-4.52v-8.53H291v8.16c0 1.28.26 2.23.75 2.88.48.64 1.23.97 2.22.97s1.76-.36 2.37-1.05c.61-.7.91-1.63.91-2.79v-8.16h3.23v14.21h-.01zm16.98 0h-3.22v-8.02c0-1.32-.24-2.31-.73-2.98s-1.21-1-2.15-1-1.77.37-2.4 1.1c-.63.73-.94 1.65-.94 2.77v8.12h-3.23v-14.21h3.23v2.3h.06c.52-.87 1.16-1.53 1.94-1.98.77-.44 1.65-.66 2.67-.66 1.57 0 2.75.49 3.56 1.48s1.21 2.44 1.21 4.37v8.69zm5.69-16.72c-.59 0-1.07-.18-1.46-.55-.38-.37-.58-.83-.58-1.37s.19-1.03.58-1.39c.39-.37.87-.54 1.46-.54s1.07.17 1.46.54c.39.36.59.83.59 1.39s-.19 1.01-.59 1.38c-.39.36-.87.54-1.46.54zm1.59 16.72h-3.23v-14.21h3.23v14.21zm12.29-.2c-.42.18-.84.31-1.29.39-.46.09-.94.13-1.45.13-1.33 0-2.35-.34-3.06-1.05-.71-.7-1.06-1.75-1.06-3.13v-7.84h-2.38v-2.51h2.38v-3.22l3.22-.98v4.2h3.4v2.51h-3.4v7.57c0 .7.13 1.21.39 1.5.26.31.64.47 1.18.47.26 0 .51-.03.74-.09.24-.06.45-.14.64-.24l.68 2.29zm15.15-14.01l-6.51 16.79c-.51 1.31-1.21 2.32-2.08 3-.89.69-1.94 1.03-3.16 1.03-.37 0-.71-.02-1.03-.07a8.7 8.7 0 01-.94-.18l.58-2.51c.21.07.41.12.59.15s.38.04.59.04c.52 0 .97-.14 1.34-.42s.69-.68.93-1.22l1.03-2.44-5.65-14.19h3.56l3.3 9.89c.06.17.12.38.16.62.06.26.12.53.17.84h.08c.03-.18.08-.39.14-.62s.13-.51.21-.81l3.44-9.93h3.25zm8.14 14.21l7.26-19.43h3.74l7.21 19.43h-3.64l-1.62-4.65h-7.76l-1.59 4.65h-3.6zm6.04-7.35h6.01l-2.66-7.66c-.06-.21-.12-.41-.17-.61-.04-.19-.09-.45-.14-.75h-.08c-.04.27-.09.49-.14.71-.06.21-.12.42-.17.61l-2.66 7.69h.01zm25.44 6.43c-.7.44-1.4.76-2.12.97-.71.19-1.47.29-2.3.29-2.19 0-3.93-.63-5.24-1.92-1.31-1.28-1.95-3.01-1.95-5.19 0-2.38.68-4.27 2.05-5.67 1.35-1.4 3.2-2.1 5.5-2.1.79 0 1.52.08 2.19.26.66.17 1.32.45 1.99.83l-1.28 2.25a5.73 5.73 0 00-1.39-.6c-.45-.12-.94-.18-1.47-.18-1.37 0-2.43.46-3.18 1.35s-1.12 2.09-1.12 3.59.39 2.74 1.18 3.58c.79.83 1.79 1.25 3.01 1.25.41 0 .84-.07 1.32-.21s.98-.37 1.47-.69l1.32 2.2zm10.87-10.58c-.17-.04-.36-.08-.52-.12-.17-.02-.38-.03-.6-.03-1.13 0-2 .43-2.62 1.28-.62.85-.93 1.98-.93 3.36v7.02h-3.24v-14.21h3.24v2.74h.06c.32-.98.81-1.73 1.46-2.23.66-.49 1.42-.75 2.3-.75.24 0 .47.01.68.04.21.02.41.06.6.12l-.43 2.79zm9.2 11.83c-2.23 0-4-.66-5.3-1.99-1.3-1.33-1.94-3.11-1.94-5.35.01-2.37.68-4.22 2.03-5.54 1.33-1.33 3.16-2 5.47-2 2.23-.01 3.97.64 5.24 1.97 1.25 1.31 1.89 3.09 1.89 5.35s-.67 4.15-1.99 5.52c-1.33 1.37-3.13 2.05-5.38 2.05h-.01zm.15-2.55c1.28 0 2.25-.43 2.92-1.27.68-.85 1.01-2.07 1.01-3.67s-.34-2.77-1.01-3.6c-.68-.83-1.65-1.24-2.93-1.24s-2.28.44-3 1.31-1.09 2.08-1.09 3.63.36 2.74 1.08 3.58c.71.84 1.73 1.27 3.03 1.27zm9.36 1.11l1.42-2.28c.54.38 1.12.69 1.74.93.62.23 1.3.34 2.05.34.79 0 1.4-.14 1.85-.43.44-.3.67-.74.67-1.32 0-.47-.19-.85-.57-1.16-.38-.31-1-.57-1.87-.77-1.77-.42-3.01-.97-3.73-1.65-.7-.69-1.06-1.59-1.06-2.71 0-1.29.51-2.35 1.53-3.16 1.01-.82 2.32-1.22 3.93-1.22.79 0 1.55.11 2.28.3.71.21 1.42.53 2.09.98l-1.27 2.21c-.61-.38-1.16-.66-1.67-.82-.49-.16-1.01-.24-1.55-.24-.76 0-1.35.14-1.79.43-.43.29-.64.69-.64 1.21s.21.91.62 1.16 1.13.51 2.15.75c1.54.38 2.67.91 3.39 1.6.71.7 1.07 1.63 1.07 2.8 0 1.37-.49 2.46-1.5 3.28-1.01.83-2.37 1.23-4.07 1.23-.93 0-1.82-.12-2.66-.36-.84-.26-1.64-.61-2.42-1.09zm12.49 0l1.42-2.28c.54.38 1.12.69 1.74.93.62.23 1.3.34 2.05.34.79 0 1.4-.14 1.85-.43.44-.3.67-.74.67-1.32 0-.47-.19-.85-.57-1.16-.38-.31-1-.57-1.87-.77-1.77-.42-3.01-.97-3.73-1.65-.7-.69-1.06-1.59-1.06-2.71 0-1.29.51-2.35 1.53-3.16 1.01-.82 2.32-1.22 3.93-1.22.79 0 1.55.11 2.28.3.71.21 1.42.53 2.09.98l-1.27 2.21c-.61-.38-1.16-.66-1.67-.82-.49-.16-1.01-.24-1.55-.24-.76 0-1.35.14-1.79.43-.43.29-.64.69-.64 1.21s.21.91.62 1.16c.42.26 1.13.51 2.15.75 1.54.38 2.67.91 3.39 1.6.71.7 1.07 1.63 1.07 2.8 0 1.37-.49 2.46-1.5 3.28-1.01.83-2.37 1.23-4.07 1.23-.93 0-1.82-.12-2.66-.36-.84-.26-1.64-.61-2.42-1.09zm21.77 1.11v-19.43h6.29c1.91 0 3.4.41 4.47 1.21s1.61 1.93 1.61 3.37c0 1.07-.31 2-.91 2.79-.61.81-1.42 1.37-2.43 1.69v.06c1.28.15 2.3.64 3.07 1.48.76.83 1.14 1.88 1.14 3.14 0 1.73-.61 3.09-1.85 4.13-1.23 1.03-2.85 1.55-4.85 1.55h-6.55zm3.29-16.8v5.53h2.16c1.06 0 1.91-.27 2.53-.78s.93-1.24.93-2.16-.29-1.52-.86-1.94c-.58-.43-1.45-.64-2.6-.64h-2.17zm0 8.15v6.01h2.76c1.17 0 2.09-.28 2.75-.83.66-.55.99-1.31.99-2.27s-.34-1.67-1.02-2.16c-.68-.51-1.65-.76-2.94-.76h-2.53zm19.82 8.98c-2.23 0-4-.66-5.3-1.99s-1.94-3.11-1.94-5.35c.01-2.37.68-4.22 2.03-5.54 1.33-1.33 3.16-2 5.47-2 2.23-.01 3.97.64 5.24 1.97 1.25 1.31 1.89 3.09 1.89 5.35s-.67 4.15-1.99 5.52c-1.33 1.37-3.13 2.05-5.38 2.05h-.01zm.15-2.55c1.28 0 2.25-.43 2.92-1.27.68-.85 1.01-2.07 1.01-3.67s-.34-2.77-1.01-3.6c-.68-.83-1.65-1.24-2.93-1.24s-2.28.44-3 1.31-1.09 2.08-1.09 3.63.36 2.74 1.08 3.58c.71.84 1.73 1.27 3.03 1.27zm18.57-9.28c-.17-.04-.36-.08-.52-.12-.17-.02-.38-.03-.6-.03-1.13 0-2 .43-2.62 1.28s-.93 1.98-.93 3.36v7.02h-3.24v-14.21h3.24v2.74h.06c.32-.98.81-1.73 1.46-2.23.66-.49 1.42-.75 2.3-.75.24 0 .47.01.68.04.21.02.41.06.6.12l-.43 2.79zm12.52 9.29c-.51.85-1.15 1.48-1.93 1.91-.77.43-1.69.63-2.74.63-1.77 0-3.21-.63-4.28-1.89-1.08-1.27-1.62-3.01-1.62-5.22 0-2.36.59-4.24 1.78-5.66 1.18-1.42 2.76-2.12 4.71-2.12.95 0 1.76.17 2.44.53s1.22.9 1.63 1.62h.04v-8.14h3.24v20.54h-3.24v-2.21h-.04zm-7.27-4.7c0 1.47.33 2.62.99 3.45.66.83 1.55 1.24 2.67 1.24s2.02-.42 2.69-1.23c.68-.83 1.02-1.89 1.02-3.19v-1.64c0-1.06-.33-1.93-.99-2.64-.64-.71-1.49-1.07-2.52-1.07-1.21 0-2.15.46-2.83 1.35-.69.91-1.03 2.15-1.03 3.73zm26.93.64h-9.7c.07 1.34.46 2.37 1.17 3.07.73.7 1.74 1.06 3.05 1.06.51 0 1.1-.11 1.79-.32.68-.21 1.35-.55 2.04-1.03l1.44 2.03c-.9.63-1.79 1.09-2.71 1.38-.91.29-1.91.43-3 .43-2.21 0-3.92-.63-5.15-1.91-1.23-1.27-1.84-3.05-1.85-5.35 0-2.28.63-4.12 1.91-5.52 1.28-1.4 2.9-2.1 4.89-2.1s3.41.6 4.51 1.79c1.08 1.19 1.63 2.89 1.63 5.09v1.4-.02zm-3.09-2.23c-.01-1.22-.28-2.14-.82-2.76-.53-.62-1.28-.93-2.25-.93-.92 0-1.7.33-2.35 1s-1.03 1.57-1.18 2.69h6.6zm14.25-3c-.17-.04-.36-.08-.52-.12-.17-.02-.38-.03-.6-.03-1.13 0-2 .43-2.62 1.28-.62.85-.93 1.98-.93 3.36v7.02h-3.24v-14.21h3.24v2.74h.06c.32-.98.81-1.73 1.46-2.23.66-.49 1.42-.75 2.3-.75.24 0 .47.01.68.04.21.02.41.06.6.12l-.43 2.79zm1.55 10.39l1.42-2.28c.54.38 1.12.69 1.74.93.62.23 1.3.34 2.05.34.79 0 1.4-.14 1.85-.43.44-.3.67-.74.67-1.32 0-.47-.19-.85-.57-1.16-.38-.31-1-.57-1.87-.77-1.77-.42-3.01-.97-3.73-1.65-.7-.69-1.06-1.59-1.06-2.71 0-1.29.51-2.35 1.53-3.16 1.01-.82 2.32-1.22 3.93-1.22.79 0 1.55.11 2.28.3.71.21 1.42.53 2.09.98l-1.27 2.21c-.61-.38-1.16-.66-1.67-.82-.49-.16-1.01-.24-1.55-.24-.76 0-1.35.14-1.79.43-.43.29-.64.69-.64 1.21s.21.91.62 1.16 1.13.51 2.15.75c1.54.38 2.67.91 3.39 1.6.71.7 1.07 1.63 1.07 2.8 0 1.37-.49 2.46-1.5 3.28-1.01.83-2.37 1.23-4.07 1.23-.93 0-1.82-.12-2.66-.36-.84-.26-1.64-.61-2.42-1.09zM41.4 0v96.42c0 10.21-8.28 18.49-18.49 18.49H0v32.14h23.38c27.7 0 50.15-22.45 50.15-50.15V0H41.39z" fill="#fff"/><path d="M0 25.62h32.14v70.7c0 5.15-4.18 9.33-9.33 9.33H0V25.63zM0 0h32.14v16.4H0z" fill="#fff"/></svg>