<svg width="132" height="51" fill="none" xmlns="http://www.w3.org/2000/svg"><g clip-path="url(#clip0_681_13094)"><mask id="a" style="mask-type:luminance" maskUnits="userSpaceOnUse" x="0" y="0" width="50" height="51"><path d="M.156.406H49.88v49.723H.156V.406z" fill="#fff"/></mask><g mask="url(#a)"><path d="M49.853 25.669v-.976a94.745 94.745 0 00-.052-1.098v-.121c0-.07-.017-.175-.017-.297a15.44 15.44 0 00-.192-1.602 17.755 17.755 0 00-.191-1.15c0-.018 0-.035-.018-.053 0-.017 0-.035-.017-.07-.07-.33-.175-.836-.297-1.254a24.97 24.97 0 00-.714-2.317c-.087-.261-.192-.54-.296-.784a4.545 4.545 0 01-.14-.349c-.035-.087-.086-.192-.121-.296l-.018-.017a14.222 14.222 0 00-.33-.715c-.019-.017-.019-.052-.036-.07a15.975 15.975 0 00-.54-1.044c-.366-.68-.732-1.29-1.063-1.778v-.017c-.156-.261-.4-.61-.61-.906-.017-.018-.017-.035-.034-.035-.14-.192-.453-.627-.889-1.167-.017-.018-.035-.052-.052-.07-.14-.157-.279-.33-.436-.523-.017-.017-.017-.034-.034-.034-.245-.296-.593-.663-.82-.906l-.017-.018-.017-.018c0-.017-.017-.017-.017-.017-.157-.174-.367-.365-.593-.592l-.07-.07c-.191-.174-.4-.383-.627-.592-.191-.175-.418-.366-.644-.558-.018-.017-.053-.035-.07-.07-.192-.156-.4-.33-.627-.487-.035-.035-.07-.053-.122-.088-.053-.034-.088-.07-.14-.104a2.718 2.718 0 00-.278-.192c-.105-.07-.21-.157-.314-.226-.157-.122-.331-.227-.505-.349a1.014 1.014 0 00-.227-.139c-.191-.122-.4-.261-.61-.383l-.156-.105c-.21-.122-.418-.244-.645-.366a.364.364 0 01-.087-.052c-.018 0-.018-.017-.035-.017-.018 0-.018-.017-.035-.017-.017 0-.017-.018-.035-.018a2.663 2.663 0 01-.296-.174l-.105-.053c-.087-.052-.174-.087-.26-.139-.053-.017-.088-.052-.14-.07-.052-.035-.122-.052-.175-.087a28.704 28.704 0 00-1.968-.888.242.242 0 00-.105-.035c-.366-.14-.749-.28-1.15-.418-.383-.14-.784-.262-1.254-.384-.4-.104-.819-.226-1.254-.313-.035 0-.053-.018-.088-.018h-.017A20.576 20.576 0 0028.528.65c-.017 0-.052 0-.07-.017a21.43 21.43 0 00-1.655-.175 29.84 29.84 0 00-3.066 0l-.191.018h-.088c-.104 0-.208.017-.313.017-.384.018-.819.07-1.237.122-.28.035-.558.07-.82.122-.4.07-.783.14-1.114.209l-.14.035c-.035 0-.07.017-.122.034a9.2 9.2 0 00-.801.192c-.035.018-.07.018-.122.035-.61.157-1.237.314-1.742.523a9.984 9.984 0 00-.958.348.602.602 0 00-.157.07c-.261.104-.523.192-.732.296-1.167.523-2.056.976-2.683 1.359a20.52 20.52 0 00-1.08.662c-.104.07-.192.122-.279.192-.435.296-.853.592-1.202.87-.226.175-.488.384-.75.61-.504.402-.993.82-1.393 1.22l-.227.227c-.191.174-.365.365-.54.54a15.78 15.78 0 01-.522.557c-.28.296-.54.61-.75.871-.017.018-.035.035-.052.07-.505.61-.888 1.15-1.185 1.568.018-.035.018-.017 0 0-.034.053-.087.122-.139.226-.017.018-.034.053-.052.07 0 0 0 .018-.018.018a14.69 14.69 0 00-.696 1.115 18.65 18.65 0 00-.837 1.533l-.156.314c-.21.435-.436.923-.593 1.341-.017.035-.017.07-.035.105-.017.052-.052.105-.07.156a27.09 27.09 0 00-.697 2.004c-.034.122-.086.244-.121.366-.122.383-.227.836-.349 1.324a23.185 23.185 0 00-.366 2.021c-.017.175-.052.366-.07.557-.034.367-.086.75-.104 1.064 0 .086-.018.174-.018.26 0 .088-.017.193-.017.28-.017.278-.017.61-.017.958v.627c0 .557.034 1.29.087 1.777l.035.314c0 .052.017.122.017.174.018.244.052.47.07.68 0 .052.017.104.017.156 0 .035.018.07.018.105.07.453.157.975.226 1.359.157.784.296 1.289.314 1.341.035.14.087.314.14.488.069.244.138.488.209.697v.017c0 .018 0 .018.017.035.226.732.453 1.307.644 1.795.053.139.122.279.157.4.018.035.035.087.053.14l.051.104c.088.227.227.523.349.767a33.282 33.282 0 00.505 1.028c.192.366.4.732.54.958.192.313.384.627.593.94.14.193.348.523.644.942.227.331.54.731.68.888v.018s0 .017.017.017a22.544 22.544 0 001.55 1.795 15.02 15.02 0 00.942.923c.017.017.052.035.07.052.226.21.522.453.783.68l.21.191c.348.297.801.662 1.185.941.278.21.592.419.87.61l.21.14c.47.33 1.115.696 1.498.905.017.018.035.018.052.035.018 0 .018.018.035.018.348.191.766.418 1.22.627.07.034.139.07.209.105.418.191 1.028.487 1.515.661h.018a23.13 23.13 0 002.404.82c.018 0 .018 0 .035.017.209.07.47.122.732.191.366.087.662.157.836.192.366.087.732.14 1.08.21.296.051.575.104.871.121.54.087 1.168.14 1.725.157.523.035.924.035 1.115.035h.61c.75 0 1.725-.07 2.579-.175h.07a4.06 4.06 0 00.487-.07c.906-.121 2.09-.348 2.927-.592.122-.035.244-.07.383-.104.157-.035.296-.087.436-.122.993-.279 2.108-.697 2.857-1.063.07-.035.14-.07.227-.104.157-.07.296-.14.435-.192a19.52 19.52 0 002.7-1.516c.07-.052.157-.104.244-.157.174-.104.331-.226.506-.33.383-.262.801-.575 1.22-.906.418-.332.818-.663 1.184-.976.192-.174.4-.366.593-.558.017-.017.034-.017.034-.035.628-.557 1.446-1.445 2.039-2.195.017-.035.035-.052.07-.087.017-.035.051-.052.07-.07.295-.348.591-.766.905-1.184a23.41 23.41 0 001.237-1.917c.105-.191.227-.4.331-.61a24.57 24.57 0 001.133-2.37c0-.016.017-.016.017-.034 0-.017.017-.017.017-.035 0-.017.018-.035.018-.035.33-.783.68-1.794.871-2.56l.053-.193c.051-.174.104-.348.139-.54.157-.627.296-1.254.365-1.672 0-.017 0-.052.018-.07.087-.488.174-1.01.209-1.446l.017-.261.053-.47c.017-.122.017-.227.035-.332.017-.435.034-1.01.034-1.48zm-.697-4.147v.035c0 .035 0 .052.018.087l.017.157v.017l-.157-.366v-.07c0-.243-.017-.505-.034-.749.052.296.104.575.14.82 0 .017.017.034.017.069zm-.087 8.049c.018-.279.018-.575.018-.871v-.07c.07-.139.122-.279.174-.418a26.57 26.57 0 01-.192 1.342v.017zM28.302 49.485c-.453.052-.94.105-1.43.14-.47.017-.94.017-1.41 0a8.07 8.07 0 001.637-.715 7.634 7.634 0 001.865-1.568c1.098.331 2.16.54 3.205.61.07 0 .14.017.21.017h.767a15.599 15.599 0 01-4.234 1.43c-.227.034-.418.051-.61.086zM9.137 41.993c-.017-.052-.052-.104-.07-.157 0-.017-.017-.017-.017-.034a30.632 30.632 0 002.84 2.961 10.544 10.544 0 01-1.603-.714 11.166 11.166 0 01-.993-1.672c-.035-.123-.105-.244-.157-.384zM40.915 8.56c.018.035.018.053.036.088.017.052.035.087.052.139a33.44 33.44 0 00-2.858-2.997 9.88 9.88 0 011.603.715 11.121 11.121 0 011.167 2.055zM8.284 10.633c.017-.07.034-.14.051-.192l.053-.21c.017-.069.035-.12.052-.19.018-.07.052-.14.07-.21.017-.07.035-.122.052-.191.018-.07.052-.14.07-.21.017-.051.035-.121.052-.174.035-.087.07-.156.087-.244.017-.052.035-.086.052-.139l.157-.366c.279-.61.593-1.167.941-1.672a17.44 17.44 0 011.986-.976c-1.411 1.464-2.613 3.171-3.589 5.035-.034 0-.087.018-.122.018v-.036c.053-.104.07-.173.088-.243zm39.078 8.85a.36.36 0 01.07.105l.156.209c.018.035.053.07.07.104.052.07.105.14.14.21.017.034.035.07.07.104.052.07.087.14.139.21l.052.104c.052.07.087.14.14.209l.052.105c.034.07.087.139.122.208l.052.105a81.707 81.707 0 00.157.314c.017.017.017.034.034.052 0 .732-.052 1.394-.174 2.021a33.752 33.752 0 00-1.307-4.303c.018.017.035.052.053.07a.55.55 0 01.174.173zM17.36 47.708h-.366c-.069 0-.156 0-.226-.017-.052 0-.087 0-.14-.018h-.07a23.21 23.21 0 01-3.17-2.16c.174.017.366.035.54.035.21 0 .401-.018.593-.035a20.11 20.11 0 003.135 2.213H17.5c-.052-.018-.087-.018-.14-.018zM48.67 28.56a7.058 7.058 0 01-.366.732 19.322 19.322 0 00-.4-3.294c.173-.26.33-.522.452-.818.192 1.132.296 2.264.314 3.38zM21.472 3.734l.314.104c.052.018.104.035.139.052.087.035.192.07.279.105-.418-.035-.82-.07-1.22-.087.07-.087.14-.192.21-.279.035.017.07.017.104.035.07.035.122.052.174.07zm7.23 43.12c-.017 0-.035-.017-.052-.017-.122-.035-.226-.087-.348-.122-.018 0-.035-.017-.07-.017-.122-.035-.226-.088-.348-.14-.018 0-.018-.017-.035-.017.4.035.801.07 1.22.087-.07.087-.14.174-.21.278l-.157-.051zM4.067 33.074c.052.035.087.07.14.122.052.052.121.105.174.157.052.052.104.087.156.139.07.052.123.105.192.157.053.052.105.087.174.14.07.051.122.104.192.156.052.035.122.087.174.122.07.052.14.105.192.14.052.034.122.086.174.122.07.052.14.104.21.139.069.035.12.087.191.122.07.052.14.087.209.14.07.034.122.087.191.121.07.052.14.087.227.14.052.034.122.069.174.104.035.017.052.035.087.052.053.035.105.07.175.105a.128.128 0 00.07.035c-.733.07-1.377.105-1.952.105a31.817 31.817 0 01-1.15-2.318zm10.785-20.645c-.75.191-1.499.418-2.23.661a2.237 2.237 0 01-.175.053 9.357 9.357 0 00-.749.279c-.104.035-.21.07-.296.104-.21.087-.418.174-.627.244-.14.052-.262.105-.4.156-.175.07-.367.157-.541.245-.157.07-.314.139-.453.208-.157.07-.314.157-.47.227-.157.087-.331.157-.488.244-.14.07-.28.157-.418.226a1.979 1.979 0 01-.262.14v-.732c0-.087 0-.157.017-.244 0-.087 0-.157.018-.243 0-.088.017-.157.017-.245 0-.07.018-.156.018-.226 0-.087.017-.157.017-.244 0-.07.018-.157.018-.227s.017-.156.035-.226c0-.035 0-.07.017-.104.227-.523.47-1.046.732-1.534 1.864-.226 3.99.192 6.22 1.238zM46.16 27.184c-.418.261-.889.418-1.394.523.07-2.248-.087-4.53-.523-6.813.401-.295.767-.574 1.115-.853.994 1.934 1.708 3.92 2.126 5.907a4.483 4.483 0 01-1.324 1.236zM26.194 4.482c.052-.034.122-.051.174-.086.087-.035.156-.07.244-.105.052-.035.122-.052.174-.087.087-.035.156-.07.244-.105.052-.017.104-.052.174-.07.087-.034.157-.069.244-.104a.61.61 0 00.157-.07c.087-.034.174-.069.244-.104l.157-.052c.087-.035.174-.07.261-.088.052-.017.105-.034.14-.051.087-.035.173-.053.26-.088.053-.017.088-.035.14-.035.087-.034.174-.052.262-.07.052-.017.086-.017.139-.034.087-.018.174-.052.261-.07.035-.017.087-.017.122-.035.087-.017.174-.052.261-.07.035-.017.088-.017.122-.017a8.23 8.23 0 01.28-.052c.034 0 .069-.018.12-.018l.28-.052c.035 0 .07-.017.104-.017.088-.017.192-.035.28-.035.034 0 .069 0 .104-.017.087-.018.191-.018.279-.035.034 0 .07 0 .104-.018h.07a20.711 20.711 0 013.415 2.265 4.279 4.279 0 00-1.307.523c-.54.33-1.011.749-1.377 1.29a31.012 31.012 0 00-6.428-2.336c.017-.017.034-.017.052-.034.087-.052.174-.088.244-.123zm16.934 29.95c-.087.052-.174.122-.278.174-.053.035-.105.07-.175.105h-.017v-.262c0-.07 0-.157-.018-.226 0-.087-.017-.192-.017-.279 0-.07-.017-.157-.017-.226 0-.087-.017-.192-.017-.279 0-.07-.018-.157-.018-.227 0-.104-.018-.191-.018-.296 0-.07-.017-.156-.017-.226-.018-.105-.018-.192-.035-.297-.017-.07-.017-.157-.035-.226-.017-.105-.017-.192-.034-.296-.018-.07-.018-.157-.035-.227l-.053-.313c-.017-.07-.017-.14-.035-.227l-.052-.313c-.017-.07-.017-.14-.035-.21-.017-.104-.035-.209-.052-.33-.017-.07-.035-.14-.035-.21-.017-.104-.035-.226-.07-.33a.902.902 0 01-.034-.21c-.017-.104-.052-.226-.07-.33-.018-.07-.035-.123-.053-.192-.034-.122-.051-.227-.086-.349-.018-.07-.035-.122-.053-.191-.035-.122-.052-.227-.087-.349-.017-.07-.035-.122-.052-.192-.018-.104-.052-.191-.087-.296a8.01 8.01 0 001.48.366c.332.052.663.087.976.087.122 0 .244 0 .349-.017-.105 2.143-.418 4.234-.958 6.22l-.157.104c-.018 0-.052.035-.105.07zm-1.69.959c-.174.086-.348.173-.54.26-.139.07-.261.14-.4.21-.175.087-.366.156-.54.244a3.3 3.3 0 01-.436.191l-.523.21c-.157.069-.314.139-.487.19-.157.053-.314.123-.471.175-.192.07-.366.14-.557.21-.14.052-.28.086-.401.139-.21.07-.436.139-.645.209-.104.034-.209.052-.314.087-.261.07-.505.157-.766.226a2.738 2.738 0 01-.192.052c-.156.036-.296.07-.453.122a12.36 12.36 0 00-.505-.26 42.875 42.875 0 006.01-10.663c.315.174.628.313.924.435.017.035.017.07.035.105 0 .017.017.034.017.052.035.157.088.313.122.47 0 .018.018.053.018.07.035.157.07.296.122.453 0 .035.017.052.017.087.035.14.07.296.105.436 0 .035.017.07.017.104.035.14.052.28.087.418 0 .035.018.07.018.122.034.14.052.262.087.4 0 .036.017.088.017.123.018.122.053.261.07.383 0 .053.017.105.017.14l.053.366c0 .052.017.104.017.157l.053.348c0 .052.017.122.017.174.017.105.034.227.034.33 0 .07.018.123.018.193.017.105.017.209.035.313 0 .07.017.14.017.21.018.104.018.19.018.296 0 .07.017.157.017.226 0 .087.017.192.017.279 0 .087.018.156.018.244 0 .087 0 .174.017.261 0 .087 0 .174.018.244v.47c-.157.087-.314.175-.488.262-.035.087-.174.156-.314.227zM24.678 45.67a29.665 29.665 0 01-6.743-2.388c.21-.33.384-.696.523-1.097.174-.435.297-.889.383-1.394.087.087.175.157.244.244l.105.105c.087.087.191.192.279.278.034.035.087.07.122.105.086.087.191.174.278.261.035.035.087.07.122.122.087.087.192.175.28.244.051.035.086.087.138.122.088.087.175.157.28.227.051.034.104.087.139.122.087.07.174.157.26.226.053.035.106.087.158.122l.26.21c.053.051.106.086.158.138.087.07.174.14.244.192.052.052.122.087.174.14.087.07.157.122.244.174.07.052.122.087.192.139.07.052.156.122.243.174.07.053.122.088.192.14.07.052.157.104.226.156.07.053.14.088.21.14.07.052.139.105.226.14.07.051.14.087.209.139.07.052.14.087.21.139.069.052.156.087.226.14.07.034.139.087.208.122.07.051.157.086.228.139.07.035.139.07.208.122-.07.035-.139.07-.191.104-.017.035-.017.035-.035.053zm3.624-2.422c-.122.087-.227.191-.349.279-.017.017-.052.034-.07.052-.104.087-.209.156-.313.244-.035.034-.07.052-.104.087-.105.07-.192.14-.296.209-.053.035-.088.07-.14.105-.088.07-.174.121-.262.191-.052.035-.104.07-.173.122a1.244 1.244 0 00-.245.174c-.07.035-.122.088-.191.123-.087.051-.157.104-.244.156-.07.035-.14.087-.21.122-.069.052-.156.087-.226.14-.07.034-.122.07-.191.104-.053-.018-.088-.053-.14-.07-.087-.052-.191-.105-.278-.157-.053-.034-.105-.07-.157-.087a3.993 3.993 0 00-.28-.157l-.155-.104c-.088-.053-.175-.104-.262-.174l-.157-.105c-.087-.052-.174-.122-.262-.174l-.156-.104c-.087-.053-.174-.122-.262-.175-.051-.035-.104-.07-.156-.122-.087-.07-.174-.121-.262-.192-.052-.034-.104-.086-.157-.121-.086-.07-.174-.122-.26-.192-.053-.035-.105-.087-.158-.122a2.47 2.47 0 00-.261-.191c-.052-.035-.104-.088-.157-.123l-.261-.208a1.163 1.163 0 01-.157-.14l-.261-.209a1.098 1.098 0 01-.157-.14c-.087-.07-.174-.139-.261-.226-.052-.052-.105-.087-.157-.14-.087-.069-.174-.156-.261-.226-.052-.052-.105-.087-.157-.139a3.29 3.29 0 01-.244-.226c-.053-.053-.105-.088-.14-.14-.087-.087-.174-.157-.261-.244a26.158 26.158 0 00-.14-.14l-.26-.26-.14-.14a9.96 9.96 0 00.087-1.29c1.847.244 3.746.366 5.68.366a44.65 44.65 0 006.55-.487c0 .592-.017 1.15-.069 1.707a34.488 34.488 0 01-2.805 2.544c-.035-.017-.035-.017-.052 0zM22.186 6.992c.122-.087.227-.175.349-.262.035-.017.052-.035.087-.052.104-.07.209-.157.314-.226.035-.035.07-.053.122-.088.104-.07.192-.139.296-.191.052-.035.104-.07.14-.105.086-.052.174-.122.26-.174.053-.035.122-.07.175-.105.087-.052.174-.104.244-.157.07-.034.122-.086.191-.122.087-.051.157-.086.244-.139.052-.035.122-.07.174-.104.053.035.105.07.175.104.087.053.157.088.243.14.07.035.14.087.192.121.07.053.157.088.227.14.07.035.14.087.209.122.07.052.157.087.226.14.07.051.14.086.21.139.07.052.139.104.226.139.07.052.14.087.209.14.07.052.14.104.226.157.07.051.14.104.21.139.07.052.139.104.226.157.07.051.14.104.209.156l.21.157.208.157c.07.052.14.105.21.174.07.053.139.105.191.157.07.052.14.122.209.174.07.052.122.104.192.157.07.052.139.122.208.174.07.052.122.105.192.157.07.07.14.122.21.191.069.053.122.105.191.175.07.07.14.122.209.192.07.052.122.122.191.174.07.07.14.139.21.191.07.053.122.122.191.175l.21.209.174.174c.07.07.157.14.226.227.053.051.105.104.14.139-.052.4-.087.836-.087 1.289-4.008-.54-8.224-.488-12.23.122 0-.593.016-1.168.069-1.707a30.744 30.744 0 013.223-2.858c.034-.052.052-.07.07-.07zM5.67 22.794a6.228 6.228 0 011.272.017 7.586 7.586 0 011.62.453c.035.105.052.192.087.296.018.087.053.175.07.261.035.105.052.192.087.297.035.087.052.174.087.261.035.105.07.192.087.296.035.088.053.174.087.262.035.104.07.191.105.296.017.034.017.052.035.087-.262.784-.488 1.55-.697 2.335 0 .017-.018.052-.018.07-.017.069-.034.138-.052.226a43.469 43.469 0 00-2.282 1.515 30.026 30.026 0 01-.488-6.672zm1.254-6.656c.087-.052.175-.104.28-.174a1.41 1.41 0 01.173-.104h.018v.261c0 .087 0 .174.017.279 0 .087 0 .156.018.244 0 .087.017.174.017.279 0 .086.017.156.017.243s.018.175.018.28c0 .086.017.173.017.243 0 .087.018.174.035.279.018.087.018.174.035.26.017.088.017.175.035.28.017.087.017.174.035.261.017.087.017.175.035.261.017.088.017.175.035.262.017.087.034.174.034.261.017.087.035.174.035.262l.052.26.053.262.052.262c.017.087.035.174.052.278l.052.262c.018.087.035.191.053.279l.052.26c.017.088.035.192.07.28.017.087.035.174.07.261.017.087.051.192.07.278.016.088.051.175.069.262.017.087.035.157.07.244a7.431 7.431 0 00-1.516-.384 6.46 6.46 0 00-1.29-.07c.105-2.142.419-4.233.959-6.22l.156-.104a.554.554 0 01.122-.087zm25.437-8.746a32.201 32.201 0 015.035 3.189c-.906.418-1.882.923-2.927 1.515a36.757 36.757 0 00-1.359-.278c-.035-.035-.052-.07-.087-.105a3.008 3.008 0 00-.209-.244c-.052-.052-.104-.122-.157-.174-.07-.087-.156-.174-.226-.262a1.113 1.113 0 01-.14-.156c-.087-.087-.156-.175-.244-.262a91.342 91.342 0 00-.139-.139c-.087-.087-.174-.192-.261-.279l-.122-.121a4.298 4.298 0 00-.052-.053 6.977 6.977 0 01.47-1.777c.087-.331.244-.61.418-.854zM13.754 37.655c-.261-.07-.522-.157-.784-.244-.087-.035-.174-.052-.279-.087-.226-.07-.453-.157-.68-.226-.121-.035-.243-.087-.348-.122-.191-.07-.4-.157-.592-.227l-.418-.157c-.174-.07-.348-.157-.523-.226-.157-.07-.296-.122-.453-.192-.174-.07-.33-.157-.488-.226a3.604 3.604 0 01-.453-.227c-.156-.087-.313-.157-.47-.244a.133.133 0 00-.07-.035c1.62-.226 3.467-.61 5.454-1.114 0 .017.017.017.017.034.07.105.14.227.226.331.035.053.07.123.122.174.07.122.157.227.227.349l.104.157c.087.122.175.244.244.348.035.053.07.088.088.14l.26.366c.036.035.053.086.087.121l.262.366c.035.035.052.07.087.123.087.121.192.243.279.365.035.035.053.07.087.105.087.122.192.244.279.366.035.035.052.07.087.104.018.035.052.053.07.087-.174.105-.366.21-.54.314-.575-.14-1.168-.279-1.725-.436a.355.355 0 00-.157-.087zm-5.14-22.492c.14-.07.296-.14.436-.21.174-.086.331-.174.505-.26.14-.07.279-.123.418-.192.192-.087.366-.175.558-.244.122-.053.261-.105.383-.157.21-.087.418-.175.627-.244.105-.035.21-.087.331-.122.227-.087.47-.174.697-.261.087-.035.157-.052.244-.087.262-.087.54-.175.819-.262.035-.017.087-.017.122-.035a41.649 41.649 0 011.585-.435c.157.087.332.174.488.261-2.491 3.188-4.547 6.865-6.01 10.645a8.757 8.757 0 00-.924-.435c-.017-.053-.035-.122-.052-.175-.035-.104-.053-.208-.087-.313l-.052-.21a2.051 2.051 0 01-.07-.313c-.018-.07-.035-.157-.052-.226-.018-.105-.053-.21-.07-.314-.018-.07-.035-.156-.052-.227a1.855 1.855 0 00-.07-.296l-.053-.243c-.017-.105-.034-.192-.051-.297l-.053-.243c-.018-.088-.035-.192-.052-.28a5.591 5.591 0 00-.052-.243 1.342 1.342 0 01-.035-.279 1.33 1.33 0 01-.035-.261c-.018-.087-.018-.175-.035-.261-.017-.088-.017-.175-.035-.262-.017-.087-.017-.174-.035-.261-.017-.087-.017-.174-.035-.262-.017-.087-.017-.174-.017-.243-.017-.088-.017-.175-.035-.262 0-.087-.017-.156-.017-.244 0-.087-.018-.174-.018-.279 0-.087-.017-.157-.017-.243 0-.088-.018-.192-.018-.28 0-.069 0-.156-.017-.226 0-.087 0-.191-.018-.279v-.47c.14-.07.262-.14.401-.227.14-.07.297-.156.453-.243zm33.591.87v.28c0 .087 0 .157-.017.243 0 .105 0 .192-.018.297 0 .07-.017.14-.017.226 0 .105-.018.21-.018.314 0 .07-.017.122-.017.191-.018.122-.018.227-.035.349 0 .052-.018.104-.018.157-.017.122-.017.26-.034.383 0 .035-.017.087-.017.122l-.053.418c0 .017 0 .052-.018.07a4.308 4.308 0 01-.07.47v.017a36.177 36.177 0 01-.591 2.98c-.384.244-.802.488-1.203.732-.017-.035-.035-.07-.035-.105-.017-.052-.052-.105-.07-.157-.051-.122-.104-.261-.156-.383-.017-.052-.052-.105-.07-.157-.052-.122-.104-.26-.174-.383-.017-.053-.052-.122-.07-.175-.052-.121-.104-.243-.174-.365-.035-.053-.052-.122-.087-.174a3.45 3.45 0 00-.174-.366c-.035-.07-.07-.122-.087-.192-.052-.122-.123-.226-.174-.349-.035-.07-.07-.121-.105-.191-.035-.07-.07-.122-.087-.192 1.394-1.533 2.613-2.996 3.59-4.355v.296zM7.848 34.52v-.279c0-.087 0-.156.017-.244 0-.104 0-.191.018-.296 0-.07.017-.139.017-.226 0-.105.017-.21.017-.314 0-.07.018-.14.018-.192.017-.104.017-.226.035-.33 0-.053.017-.105.017-.157.018-.122.018-.245.035-.366 0-.035.017-.087.017-.122l.053-.418c0-.018 0-.053.017-.07.018-.157.035-.313.07-.47v-.018c.156-.976.348-1.969.592-2.979.384-.244.784-.488 1.202-.732.018.035.018.053.035.087.035.087.087.192.122.279l.104.261c.035.105.088.192.123.297l.104.261c.052.104.087.209.14.296.034.087.07.157.104.244l.157.313c.035.07.07.157.104.227.053.105.105.227.157.331l.105.21c.052.121.122.226.174.348 0 .017.017.017.017.034-1.393 1.534-2.613 2.997-3.589 4.356v-.087c.018-.07.018-.157.018-.244zm1.359-10.296a.62.62 0 00-.07-.192c-.035-.105-.07-.227-.104-.331-.018-.07-.035-.14-.07-.21 0-.016 0-.034-.018-.034.244.104.488.244.75.365-.122.314-.227.628-.332.942a.837.837 0 00-.07-.192c0-.122-.052-.227-.086-.349zm30.75-.402c.07.175.14.349.192.523 0 0 0 .018.017.018.07.174.123.348.192.523v.017c.053.122.087.261.14.383-.14.436-.297.854-.454 1.29a14.963 14.963 0 01-2.3-1.69 116.44 116.44 0 002.161-1.203c.018.035.035.088.053.14 0-.018 0-.018 0 0zM16.264 37.394a3.88 3.88 0 01-.244-.314 1.062 1.062 0 00-.105-.14c-.087-.103-.157-.208-.243-.313-.036-.052-.07-.104-.105-.157-.087-.104-.157-.209-.244-.33a23.81 23.81 0 00-.105-.157c-.087-.105-.156-.227-.243-.331l-.105-.157c-.087-.104-.157-.227-.244-.331l-.104-.157c-.07-.105-.157-.226-.227-.331l-.105-.157c-.07-.087-.121-.191-.191-.279 1.133-.296 2.3-.627 3.502-.993a18.82 18.82 0 01.958 3.223 84.49 84.49 0 01-1.969 1.203c-.035-.035-.07-.087-.104-.122a.944.944 0 00-.122-.157zm-4.722-7.422c-.052-.105-.104-.227-.157-.331a1.82 1.82 0 00-.104-.192c-.052-.122-.104-.226-.157-.348-.035-.07-.07-.122-.087-.192-.052-.122-.104-.226-.157-.348-.035-.07-.052-.122-.087-.192l-.156-.366c-.035-.052-.053-.122-.088-.174-.052-.122-.104-.227-.139-.349-.035-.07-.053-.121-.087-.192-.017-.051-.035-.086-.053-.139a88.739 88.739 0 012.265-1.254 17.83 17.83 0 011.655 1.777 86.039 86.039 0 00-2.508 2.579c0-.018-.018-.035-.018-.053-.034-.087-.087-.157-.122-.226zm-1.568-3.59c-.017-.069-.052-.121-.07-.191-.052-.122-.087-.243-.139-.348-.017-.07-.052-.122-.07-.192-.035-.122-.086-.227-.121-.348 0-.018 0-.018-.018-.036.14-.435.296-.853.453-1.289.801.47 1.568 1.046 2.3 1.69-.732.401-1.464.802-2.16 1.202-.018-.052-.035-.104-.053-.139-.035-.104-.087-.226-.122-.348zm3.555 7.11c-.07-.123-.14-.228-.21-.35l-.313-.522-.314-.523c-.052-.087-.087-.157-.14-.243-.051-.087-.104-.192-.156-.28a4.398 4.398 0 00-.157-.295c-.034-.07-.087-.157-.122-.227a3.82 3.82 0 00-.157-.296c-.034-.07-.087-.157-.122-.227v-.017a89.21 89.21 0 012.544-2.63 20.911 20.911 0 013.032 5.139c-1.22.365-2.405.714-3.555 1.01-.07-.104-.139-.226-.208-.33-.053-.088-.088-.14-.122-.21zm22.544-20.664c.087.018.157.035.244.07.244.07.47.14.715.209.121.035.226.07.348.104.209.07.4.14.61.21a4.3 4.3 0 00.435.139c.174.07.349.139.523.21.157.069.313.12.47.19l.47.21c.175.07.332.139.506.208.157.07.296.14.453.21.174.087.331.157.505.244.14.07.296.156.436.226l.104.052c-1.62.227-3.467.61-5.453 1.116 0-.018-.017-.035-.017-.035-.053-.088-.122-.175-.175-.262-.052-.087-.104-.156-.157-.244-.07-.087-.122-.191-.191-.279-.052-.07-.105-.156-.157-.226-.07-.087-.122-.192-.192-.278l-.156-.21c-.07-.087-.122-.174-.192-.278l-.157-.21c-.07-.087-.122-.174-.191-.26a2.419 2.419 0 01-.157-.227c-.07-.088-.122-.175-.192-.244-.052-.07-.122-.157-.174-.227-.07-.087-.122-.157-.192-.244-.052-.07-.121-.156-.174-.226-.017-.018-.035-.052-.052-.07.191-.104.366-.209.54-.313.244.052.488.104.714.174.035 0 .07.017.087.017.261.087.54.174.82.244zm1.307 5.627c.07.122.14.245.209.349.035.052.07.122.104.174.088.14.157.296.245.436l.052.104c.07.14.156.279.226.436l.052.104v.018a71.044 71.044 0 01-2.543 2.63 20.912 20.912 0 01-3.032-5.139 94.802 94.802 0 013.554-1.01s0 .017.018.017c.07.104.14.209.192.314.052.086.121.191.174.278.052.07.104.157.139.227l.314.523c.087.191.191.365.296.54zm-22.806 9.2a106.572 106.572 0 016.272-5.662 36.87 36.87 0 004.67 8.17 121.416 121.416 0 01-7.84 2.753 21.02 21.02 0 00-3.102-5.261zm5.61-5.471a107.989 107.989 0 00-5.784 5.244 18.749 18.749 0 00-1.603-1.707 117.041 117.041 0 017.387-3.537zm13.38-9.844c-.034-.034-.07-.087-.104-.122.191.035.383.07.557.122a3.103 3.103 0 00-.313.192c-.053-.087-.105-.14-.14-.192zm-.627-.208c.053.051.087.104.14.156.087.087.156.191.243.279.035.034.07.07.088.122-.61.348-1.22.732-1.847 1.115a12.554 12.554 0 01-.21-1.952c.523.07 1.046.157 1.569.262 0 0 .017 0 .017.018zm.645.766c.034.034.07.087.104.122.053.052.087.104.14.174.07.105.157.192.226.296.035.052.088.105.122.174.07.105.157.192.227.296.035.053.087.105.121.157.07.105.157.21.227.314.035.052.087.104.122.175.07.104.157.208.226.313.035.052.088.105.122.174.07.105.157.209.227.313l.104.157c.07.122.157.227.227.349l.105.157c.07.087.122.191.191.279-1.133.296-2.3.627-3.502.993a18.816 18.816 0 01-.958-3.224 50.783 50.783 0 011.969-1.22zm-1.29 4.512a113.18 113.18 0 00-7.892 2.77c-.174-.208-.33-.435-.505-.644a95.087 95.087 0 017.457-5.28c.209 1.046.522 2.109.94 3.154zm-8.136 2.858c-.801.313-1.603.644-2.404.975a84.604 84.604 0 011.951-1.55c.14.191.296.383.453.575zm2.736 3.624a39.1 39.1 0 00-2.335-3.485c2.648-1.028 5.296-1.969 7.823-2.735a21.569 21.569 0 003.1 5.261 105.741 105.741 0 01-6.254 5.645 35.595 35.595 0 00-2.334-4.686zm-3.363-4.409a97.73 97.73 0 00-2.596 2.091 30.997 30.997 0 01-1.812-6.464c1.568 1.255 3.05 2.736 4.408 4.373zm-2.491 2.353c1.08-.47 2.177-.907 3.275-1.342a36.903 36.903 0 014.722 8.24c-1.08.471-2.178.907-3.276 1.342a36.2 36.2 0 01-4.721-8.24zm-.314-.157a110.02 110.02 0 00-8.119 3.867 14.02 14.02 0 00-2.474-1.811 41.803 41.803 0 016.01-10.663 24.05 24.05 0 012.701 1.795c.314 2.264.976 4.564 1.882 6.812zM17.78 33.16a116.698 116.698 0 007.91-2.77c.156.209.33.418.505.645a92.027 92.027 0 01-7.475 5.278 17.187 17.187 0 00-.94-3.153zm8.136-2.874c.801-.314 1.602-.645 2.404-.976a84.528 84.528 0 01-1.95 1.55c-.158-.191-.297-.383-.454-.574zm9.74-7.179c.504.61 1.044 1.185 1.602 1.708a107.924 107.924 0 01-7.387 3.536 89.944 89.944 0 005.784-5.244zm.226-.209a86.039 86.039 0 002.508-2.578l.105.209c.018.017.018.035.035.052.087.174.174.331.244.505 0 .018.017.018.017.035.087.157.157.331.244.505 0 .018.017.035.017.035.07.175.157.332.227.506 0 .017.017.017.017.034.07.174.157.349.227.523v.018c.07.174.157.348.226.522v.018l.053.157a87.11 87.11 0 01-2.266 1.254 20.417 20.417 0 01-1.654-1.795zm2.543-3.223a5.474 5.474 0 00-.174-.33c-.052-.088-.087-.158-.14-.245-.051-.105-.104-.191-.156-.296-.052-.104-.122-.209-.174-.314-.035-.07-.088-.156-.122-.226a15.346 15.346 0 01-.314-.54c-.105-.192-.209-.349-.313-.523-.036-.07-.088-.14-.122-.209-.07-.104-.122-.21-.192-.314-.053-.087-.104-.156-.157-.244 2.021-.505 3.885-.888 5.523-1.097-.958 1.376-2.178 2.875-3.59 4.425-.016 0-.052-.035-.069-.087zm-7.352-7.857c.018.696.087 1.428.226 2.16-2.49 1.568-5.052 3.397-7.578 5.366-1.447-1.76-3.015-3.31-4.652-4.6-.14-.94-.21-1.881-.227-2.804 4.008-.628 8.224-.68 12.23-.122zM17.117 38.439a1.008 1.008 0 00-.122-.14c-.088-.104-.175-.208-.262-.295-.034-.035-.07-.07-.087-.122.61-.349 1.22-.732 1.847-1.116.122.663.191 1.307.209 1.952a24.617 24.617 0 01-1.568-.261c0-.018 0-.018-.017-.018zm-5.54-7.683c.052.087.086.174.138.26.036.053.053.123.088.176.07.122.139.26.209.383.035.052.052.104.087.157.087.157.156.296.244.435.018.035.035.07.052.087.105.174.209.349.313.54l.314.523c.053.087.122.192.175.279.052.087.104.157.156.243.053.088.105.157.157.245-2.021.505-3.885.888-5.523 1.097.941-1.376 2.16-2.857 3.59-4.425zm4.79 7.3l.053.052c.034.035.052.07.087.104.035.053.087.088.121.14-.191-.035-.383-.07-.557-.122.07-.052.192-.122.296-.174zm2.196-26.081c.017.836.087 1.672.209 2.526a26.54 26.54 0 00-2.474-1.655c.139-.175.279-.367.435-.54.61-.105 1.22-.227 1.83-.331zM9.468 26.017c.035.087.07.192.105.278l.104.262c.035.087.07.192.105.279.034.07.052.14.087.209-.349.209-.68.4-1.011.61.157-.61.331-1.238.54-1.847.018.07.035.14.07.209zm9.513 12.736a13.43 13.43 0 00-.227-2.16 99.734 99.734 0 007.58-5.367c1.428 1.742 2.978 3.293 4.634 4.6.139.94.208 1.882.226 2.805a43.46 43.46 0 01-12.213.122zm7.561-7.684a98.103 98.103 0 002.596-2.09 30.994 30.994 0 011.812 6.463c-1.585-1.254-3.05-2.735-4.408-4.373zm2.805-2.195c2.84-1.22 5.593-2.508 8.119-3.85a14.05 14.05 0 002.474 1.812 41.771 41.771 0 01-6.01 10.662 22.12 22.12 0 01-2.701-1.811c-.331-2.23-.959-4.53-1.882-6.813zM16.002 12.69a1.907 1.907 0 00-.262-.14c.157-.035.313-.07.453-.104-.07.087-.14.156-.191.244zm15.4-2.248c.053.053.106.122.158.174.07.088.157.157.226.244.053.053.105.105.157.174.07.088.157.157.226.245.053.052.105.104.157.173.07.088.157.175.227.262l.018.018c-.402-.07-.82-.14-1.22-.192-.018-.4 0-.767.052-1.098zM18.65 40.112c-.051-.053-.086-.087-.139-.14l-.26-.261-.14-.14c-.087-.087-.175-.174-.262-.278-.035-.053-.087-.087-.121-.14-.088-.087-.175-.191-.262-.278.4.07.819.139 1.22.191.034.366.017.715-.035 1.046.017.017.017.017 0 0zm21.97-15.49c-.052-.12-.086-.26-.139-.382-.018-.052-.035-.105-.07-.157-.052-.122-.104-.262-.156-.383-.018-.053-.053-.105-.07-.157 0-.018 0-.018-.018-.035.349-.21.68-.4 1.011-.61a24.74 24.74 0 01-.54 1.847c.017-.035 0-.07-.018-.122zm.053 1.186c.017.052.035.087.052.14 0 .017 0 .017.017.034.053.174.105.331.157.505 0 .018 0 .018.017.035.053.157.105.331.157.488 0 .017.018.035.018.052 0 .018.017.035.017.053a9.847 9.847 0 01-.749-.366c.104-.331.21-.628.314-.941zm-9.182 12.77a25.01 25.01 0 00-.192-2.526 24.47 24.47 0 002.474 1.656c-.139.174-.279.365-.435.54-.61.121-1.237.226-1.847.33zm10.018-24.06c-.157-.07-.314-.157-.47-.226-.157-.07-.331-.157-.488-.227-.14-.07-.296-.122-.435-.191a7.372 7.372 0 00-.558-.227 3.346 3.346 0 00-.384-.14 9.79 9.79 0 00-.644-.243 5.771 5.771 0 00-.296-.105c-.262-.087-.506-.174-.767-.261l-.157-.052a35.629 35.629 0 00-2.44-.663 41.23 41.23 0 012.772-1.393 29.43 29.43 0 013.99 3.816c-.036-.053-.088-.07-.123-.088zm-22.945-2.875c-.506.087-.993.175-1.499.261a48.62 48.62 0 011.534-1.707c-.018.47-.035.959-.035 1.446zM8.335 28.3c-.017.105-.051.21-.07.314-.016.07-.034.157-.052.227-.017.086-.034.191-.07.278-.016.087-.034.192-.051.279-.018.07-.035.157-.053.226-.017.105-.052.227-.07.331-.017.07-.017.122-.034.192-.018.122-.052.244-.07.366 0 .052-.017.104-.017.157-.018.14-.035.261-.07.4 0 .035-.018.088-.018.123l-.051.418c0 .034-.018.07-.018.104l-.052.436c0 .035 0 .07-.018.104a3.61 3.61 0 00-.035.436c0 .035 0 .07-.017.122-.017.14-.017.279-.035.418 0 .034 0 .087-.017.122-.018.14-.018.261-.018.4v.158c0 .121-.017.243-.017.365v.087a29.738 29.738 0 01-1.29-4.651c.663-.436 1.36-.924 2.143-1.412zm33.382-6.045c.017-.087.035-.175.07-.28.017-.086.035-.173.07-.26.017-.088.034-.157.051-.244.018-.105.053-.21.07-.331.018-.07.018-.122.035-.192.018-.122.052-.244.07-.383.017-.053.017-.105.017-.14.018-.14.053-.279.07-.418 0-.034.017-.07.017-.105.018-.139.053-.296.07-.435 0-.035 0-.052.018-.087.017-.157.052-.314.07-.47 0-.018 0-.053.017-.07l.052-.47v-.07l.052-.47v-.07c.017-.157.035-.314.035-.47v-.09c.017-.157.017-.296.035-.453v-.104c0-.14.017-.28.017-.418v-.07a29.81 29.81 0 011.29 4.652c-.628.47-1.342.958-2.126 1.446zM8.44 35.983l.105.052c.122.07.261.122.383.192.192.086.366.174.557.261.123.052.245.104.349.157l.627.261c.105.035.21.087.296.122.244.087.488.192.732.279.07.034.157.052.226.087.28.104.558.192.854.279a.33.33 0 00.122.035c.331.104.645.208.976.296h.017c.488.139.994.279 1.498.4-.993.54-1.916 1.01-2.77 1.394a32.849 32.849 0 01-3.972-3.815zm25.628 1.881c.088.052.175.105.262.14l-.47.104c.07-.07.139-.157.208-.244zM12.674 39.99a42.684 42.684 0 002.91-1.499c.452.105.905.192 1.358.28.07.069.14.156.192.226.035.035.052.07.087.104.105.105.192.227.296.331.035.035.053.07.088.105.104.104.191.209.296.313.034.035.07.07.087.105.104.105.192.209.296.314l.104.104.21.209a7.013 7.013 0 01-.471 1.777 4.88 4.88 0 01-.453.837 33.363 33.363 0 01-5-3.206zm18.816-1.063c.506-.087.993-.174 1.48-.261a28.51 28.51 0 01-1.532 1.69c.052-.47.07-.941.052-1.429zm.628-31.657a5.65 5.65 0 00-.524 1.08 7.165 7.165 0 00-.383 1.394l-.104-.104-.296-.296c-.035-.035-.07-.07-.105-.088-.105-.104-.21-.191-.314-.296l-.087-.087a2.68 2.68 0 00-.33-.296l-.07-.07a5.028 5.028 0 00-.332-.296c-.017-.017-.052-.035-.07-.052-.121-.104-.226-.21-.348-.296a.238.238 0 00-.07-.053c-.121-.104-.243-.191-.365-.296l-.052-.052c-.122-.105-.244-.192-.366-.296l-.053-.053c-.122-.086-.243-.191-.365-.278l-.053-.053c-.122-.087-.243-.173-.365-.278-.018-.018-.053-.035-.07-.052l-.366-.262c-.017-.017-.052-.035-.07-.052-.122-.087-.226-.157-.348-.244-.035-.017-.07-.035-.088-.07-.104-.07-.226-.139-.33-.209-.035-.017-.07-.052-.122-.07-.105-.07-.21-.121-.314-.19-.052-.036-.105-.053-.14-.088-.086-.053-.191-.105-.278-.157-.07-.035-.122-.07-.192-.104.07-.035.14-.07.21-.122.017 0 .017-.018.034-.018a30.5 30.5 0 016.726 2.404zM43.11 27.724a7.595 7.595 0 01-1.62-.453c-.035-.104-.053-.209-.087-.296-.018-.052-.035-.122-.053-.174l-.104-.366a2.164 2.164 0 01-.053-.174c-.035-.122-.087-.244-.122-.384l-.052-.156c-.035-.122-.087-.262-.122-.383 0-.018-.017-.035-.017-.07.209-.61.383-1.22.557-1.83v-.035c.035-.156.087-.296.122-.453.018-.034.018-.07.035-.121l.052-.21a43.224 43.224 0 002.283-1.515c.4 2.213.557 4.442.47 6.62-.418.07-.854.07-1.289 0zm1.08-7.16a31.664 31.664 0 00-1.167-4.269 26.259 26.259 0 012.195 3.467c-.313.261-.662.54-1.028.802zm-1.045-4.722c.017 0 .017.018.035.018.07.035.122.087.191.121.07.053.14.088.209.14.052.035.122.087.175.122.07.052.139.087.208.14.053.034.122.087.175.121.07.052.14.087.209.14.052.034.105.07.157.122l.209.157c.052.034.104.07.157.121.07.053.139.105.191.157.052.035.087.07.14.122.07.052.139.104.191.157.053.035.088.07.14.104.07.053.122.105.191.175.035.035.087.07.122.104.07.053.122.122.192.174.035.035.07.07.122.105.07.052.122.122.174.174l.07.07c.034.087.07.157.104.244-.278.279-.592.592-.958.888a30.265 30.265 0 00-2.404-3.676zM5.86 29.99a31.64 31.64 0 001.168 4.269 27.49 27.49 0 01-2.195-3.468c.331-.26.662-.522 1.027-.801zm1.046 4.722c-.087-.052-.157-.105-.226-.14-.053-.035-.122-.07-.175-.104-.07-.053-.14-.087-.209-.14a28.56 28.56 0 00-.157-.104c-.07-.052-.139-.105-.226-.157a.99.99 0 01-.14-.105c-.07-.051-.156-.104-.226-.156-.052-.035-.087-.07-.14-.105-.069-.052-.156-.122-.226-.174a.303.303 0 00-.122-.087 2.249 2.249 0 01-.226-.192c-.035-.035-.07-.052-.105-.087-.07-.07-.157-.122-.226-.192-.035-.017-.053-.052-.088-.07-.07-.069-.156-.138-.226-.208l-.07-.07c-.07-.07-.157-.14-.226-.209-.018-.018-.053-.035-.07-.07l-.14-.14c-.034-.086-.069-.156-.104-.243.28-.279.593-.592.958-.889a28.791 28.791 0 002.37 3.642zm34.81-20.61a31.884 31.884 0 00-3.694-3.52c.489-.21.959-.401 1.411-.575a30.014 30.014 0 012.283 4.094zm-3.955-3.712a31.52 31.52 0 00-5.191-3.31c.33-.436.73-.784 1.184-1.063a4.08 4.08 0 011.62-.557c1.429 1.22 2.718 2.682 3.868 4.303-.453.192-.958.4-1.481.627zm-12.98-5.575c-.035-.018-.086-.053-.122-.07.053.017.122.017.175.035-.018.017-.035.017-.053.035zM2.168 20.616c.035-.052.07-.122.122-.174.018-.035.052-.07.07-.105.052-.087.122-.174.191-.261a.244.244 0 00.053-.07c.052-.087.122-.157.174-.244.017-.035.052-.052.07-.087.052-.07.104-.14.174-.209.035-.035.052-.07.087-.104.017-.018.035-.053.07-.07.035-.035.052-.07.086-.087a.986.986 0 01.122-.14c.035-.035.07-.07.088-.104l.017-.017c.052-.07.122-.122.174-.192l.105-.105.191-.192a.452.452 0 01.105-.086l.21-.21c.034-.034.069-.052.104-.087.07-.07.156-.14.226-.209.035-.035.07-.052.087-.087.088-.07.157-.14.244-.209a.367.367 0 00.087-.07l.261-.209a.37.37 0 00.088-.07c.087-.069.174-.139.279-.209a.356.356 0 00.086-.07c.088-.069.192-.139.28-.208.034-.018.069-.053.104-.07.017-.017.035-.017.052-.035-.47 1.9-.766 3.903-.854 5.941a4.452 4.452 0 00-1.69.593 4.586 4.586 0 00-1.132.958 17.018 17.018 0 01-.331-3.502zM3.91 23.37c.418-.262.889-.419 1.394-.523-.07 2.247.087 4.53.523 6.812-.4.296-.767.575-1.116.854-.993-1.934-1.707-3.92-2.125-5.906a4.277 4.277 0 011.324-1.238zm4.425 13.066a30.776 30.776 0 003.712 3.52c-.488.209-.959.4-1.412.575a25.886 25.886 0 01-2.3-4.095zm2.474 4.339c.471-.174.977-.384 1.481-.61a31.165 31.165 0 005.192 3.31c-.33.436-.732.785-1.184 1.063a4.07 4.07 0 01-1.62.558c-1.43-1.238-2.719-2.684-3.869-4.321zm14.479 4.965c.035.017.087.035.122.07-.053-.018-.122-.018-.175-.035 0-.018.018-.018.053-.035zm16.15-35.803c.018.07.035.122.052.191.018.035.018.088.035.14.035.087.053.191.087.279.018.035.018.087.035.122.018.104.053.191.07.296.017.035.017.087.035.122.017.104.052.209.07.314 0 .034.017.086.017.122.018.104.035.208.07.313 0 .035.017.087.017.122.017.104.035.226.053.33 0 .036.017.07.017.123.017.122.035.226.052.348 0 .035.017.07.017.123.018.121.035.226.035.348 0 .035 0 .087.018.122.017.122.017.244.035.348 0 .053 0 .087.017.14 0 .121.017.226.017.348a26.713 26.713 0 00-2.37-4.286c.245-.087.49-.157.716-.226.208-.053.4-.105.592-.157.087.14.191.279.313.418zm-21.5-4.216a9.24 9.24 0 01.785-1.411c.906.034 1.812.104 2.735.244.088.034.157.07.245.121.051.035.104.053.156.087l.313.157c.07.035.123.07.192.105.018 0 .035.017.035.017s-.017 0-.017.017a1.16 1.16 0 00-.192.123c-.087.052-.174.104-.244.156-.07.035-.14.088-.192.123-.086.051-.157.104-.243.156-.07.052-.14.087-.21.14-.07.052-.156.104-.226.156-.07.053-.157.105-.226.157-.07.052-.14.087-.192.14-.087.052-.157.122-.244.174-.052.035-.122.087-.174.122-.088.07-.174.14-.28.209-.051.035-.086.07-.138.104-.105.088-.21.157-.297.244a.47.47 0 00-.104.087c-.105.087-.227.175-.331.28l-.052.052a8.167 8.167 0 01-.383.313 47.634 47.634 0 00-1.708 1.568c.191-1.359.523-2.56.993-3.641zM8.633 40.617c-.018-.07-.035-.122-.052-.192-.018-.052-.035-.121-.053-.191-.017-.07-.052-.157-.07-.227-.017-.052-.034-.121-.052-.174a.991.991 0 00-.07-.244c-.017-.052-.017-.105-.034-.157-.017-.087-.035-.174-.052-.278-.018-.053-.018-.105-.036-.157-.017-.105-.034-.192-.052-.296 0-.053-.017-.088-.017-.14l-.052-.313c0-.053-.018-.087-.018-.14l-.052-.33c0-.036-.017-.088-.017-.123a2.114 2.114 0 01-.035-.348c0-.035 0-.087-.018-.14-.017-.122-.017-.226-.035-.348 0-.053 0-.087-.017-.14 0-.104-.017-.226-.017-.33a26.752 26.752 0 002.37 4.286c-.245.087-.489.156-.715.226-.21.052-.401.104-.575.157a3.561 3.561 0 01-.331-.401zm7.718 4.268c.54-.313.993-.749 1.377-1.271a30.26 30.26 0 006.428 2.334c-.017.018-.052.018-.07.035l-.209.105-.208.104-.21.105c-.07.034-.139.052-.191.087-.07.035-.14.07-.227.104-.07.035-.122.053-.191.088-.07.034-.157.07-.227.087-.07.017-.122.052-.192.07-.07.034-.157.051-.226.086-.053.018-.122.053-.174.07-.07.035-.157.052-.227.087-.052.018-.122.035-.174.053-.07.017-.157.052-.227.07-.052.017-.122.034-.174.052-.07.017-.156.051-.226.07-.052.016-.105.034-.174.052a1.248 1.248 0 00-.244.07c-.053.016-.105.034-.157.034-.087.017-.157.035-.244.052-.053.018-.105.018-.157.035-.087.017-.157.035-.244.052-.052.018-.105.018-.157.035-.087.018-.156.035-.244.035-.052 0-.104.017-.157.017-.087.018-.156.018-.243.035-.053 0-.105.017-.14.017-.087.018-.157.018-.243.036-.053 0-.088 0-.14.017h-.035a20.732 20.732 0 01-3.415-2.265c.488-.157.941-.313 1.342-.558zm13.764-.051a9.223 9.223 0 01-.784 1.41 24.669 24.669 0 01-2.735-.243c-.018-.018-.053-.018-.07-.035-.105-.053-.192-.087-.297-.14-.052-.017-.104-.052-.157-.07a1.907 1.907 0 01-.26-.139.823.823 0 00-.175-.087c.07-.052.157-.087.227-.14.07-.034.122-.087.191-.121.088-.052.174-.105.244-.157.07-.035.122-.087.192-.122.087-.052.174-.122.261-.174.052-.035.122-.07.174-.122.088-.07.174-.122.28-.192l.156-.104c.105-.07.191-.14.296-.21a.495.495 0 01.122-.086c.105-.07.21-.157.314-.245.034-.017.07-.051.105-.07.121-.086.226-.173.348-.26l.052-.053c.122-.104.244-.209.366-.296l.017-.017a31.036 31.036 0 002.109-1.917c-.175 1.307-.489 2.527-.976 3.59zm12.544-8.224c0-.087 0-.175.017-.262 0-.087 0-.156.018-.243v-.994c.052-.034.122-.07.174-.104.07-.052.157-.087.226-.14.053-.034.122-.07.175-.104a29.866 29.866 0 01-.628 1.882c.018-.018.018-.018.018-.035zm3.345-19.13a1.971 1.971 0 01-.192-.174.445.445 0 00-.104-.087c-.07-.07-.157-.122-.226-.192-.035-.035-.088-.07-.123-.104l-.226-.175c-.035-.035-.087-.07-.122-.104-.07-.053-.157-.122-.227-.174-.052-.036-.087-.07-.139-.105-.07-.052-.157-.105-.226-.157l-.157-.105c-.07-.052-.157-.104-.227-.156-.052-.035-.104-.07-.174-.105a1.564 1.564 0 00-.227-.139c-.07-.035-.122-.087-.191-.122-.07-.053-.14-.087-.227-.14-.07-.035-.139-.087-.208-.121a.132.132 0 00-.07-.035 20.81 20.81 0 011.95-.105c.384.75.75 1.516 1.116 2.3zm-3.31-2.474a22.74 22.74 0 001.063-1.76c.33.54.644 1.08.94 1.62a25.37 25.37 0 00-2.003.14zm-.14-.33v-.07c0-.088 0-.175-.017-.28 0-.07 0-.156-.018-.226 0-.087-.017-.175-.017-.261 0-.07-.017-.157-.017-.227 0-.087-.018-.174-.018-.261 0-.07-.017-.157-.017-.227-.017-.087-.017-.174-.035-.261-.017-.07-.017-.157-.035-.227-.017-.086-.017-.157-.035-.243-.017-.07-.017-.157-.035-.227-.017-.087-.034-.157-.034-.244-.018-.07-.018-.157-.035-.226-.018-.07-.035-.157-.053-.227-.017-.07-.034-.157-.052-.226-.017-.07-.035-.14-.052-.227-.018-.07-.035-.157-.052-.226 0-.018 0-.035-.017-.053a37.39 37.39 0 011.497 2.195c-.191.524-.522 1.08-.958 1.743zM7.377 35.546a22.653 22.653 0 00-1.063 1.76c-.33-.54-.644-1.08-.94-1.62a23.12 23.12 0 002.003-.14zm.122.348v.07c0 .087 0 .174.018.262 0 .086 0 .157.017.243 0 .088.018.175.018.262 0 .087.017.156.017.244 0 .087.017.174.017.244 0 .087.018.156.018.243 0 .088.017.157.035.245.017.086.017.156.035.243.017.07.017.157.035.227.017.087.017.157.034.244.017.07.017.157.035.226.017.087.017.157.035.244.017.07.035.14.035.21.017.086.035.156.052.243l.052.21c.018.069.035.156.053.226 0 .017 0 .034.017.052a37.398 37.398 0 01-1.498-2.195c.226-.523.557-1.098.975-1.743zm27.72 2.248c1.515-.4 2.979-.888 4.338-1.463.017-.018.052-.018.07-.035.243-.105.47-.21.714-.314.104-.052.209-.087.313-.14l.523-.26c.157-.07.296-.157.453-.227.157-.07.296-.157.435-.244.088-.052.157-.087.245-.14v.732c0 .087 0 .175-.018.261 0 .07 0 .157-.017.227 0 .087-.018.174-.018.262 0 .07-.017.139-.017.209 0 .087-.018.173-.018.26 0 .07-.017.14-.017.21-.017.087-.017.174-.035.261 0 .035 0 .07-.017.088a25.007 25.007 0 01-.732 1.532c-1.864.227-3.972-.191-6.203-1.22zm12.491-7.91c-.07.104-.157.21-.226.314a.394.394 0 01-.07.087c-.052.07-.122.157-.174.227-.035.034-.052.07-.087.104-.052.07-.105.14-.175.209a.778.778 0 00-.104.122c-.052.07-.122.122-.174.192l-.105.104a.951.951 0 01-.191.192l-.105.105c-.07.07-.122.139-.191.191l-.105.105c-.07.07-.14.139-.21.191-.034.035-.069.052-.104.088-.07.07-.157.139-.226.208-.035.035-.07.053-.105.088-.087.07-.156.139-.244.208a.419.419 0 00-.087.07l-.261.21c-.035.016-.07.052-.087.069-.087.07-.174.14-.279.21a.322.322 0 00-.087.069c-.087.07-.192.14-.279.209-.035.017-.07.052-.104.07-.018.017-.035.017-.052.035.487-1.9.766-3.903.853-5.941a4.453 4.453 0 001.69-.593 4.32 4.32 0 001.133-.976c.209 1.185.33 2.352.33 3.52a1.724 1.724 0 01-.174.313zM8.127 11.26c.017 0 .017 0 0 0zm-.715 2.683c0 .07 0 .157-.017.244 0 .087 0 .174-.018.262v.975c-.07.035-.14.087-.209.122-.07.035-.139.087-.209.122-.052.035-.122.07-.174.105.192-.645.4-1.272.627-1.882v.052zM47.78 25.46c-.435-1.899-1.15-3.815-2.108-5.662.262-.227.505-.435.732-.662.07-.07.14-.14.209-.191.714 1.811 1.271 3.658 1.62 5.47a6.228 6.228 0 01-.453 1.045zm-45.508-.348c.436 1.916 1.15 3.815 2.109 5.662-.262.227-.506.436-.732.662-.07.07-.14.14-.209.192-.714-1.812-1.272-3.659-1.62-5.47.14-.384.278-.733.452-1.046zm.628 6.203c-.035-.035-.07-.07-.105-.122-.017-.018-.034-.035-.034-.053a8.467 8.467 0 01-.192-.244c-.018-.017-.018-.034-.035-.052-.07-.087-.122-.174-.192-.261-.017-.018-.017-.035-.034-.053-.053-.087-.122-.174-.175-.261-.017-.017-.017-.035-.035-.052-.052-.087-.104-.175-.157-.244-.017-.018-.017-.035-.034-.053a3.807 3.807 0 01-.14-.243c-.017-.018-.017-.053-.034-.07a1.568 1.568 0 01-.122-.244c-.018-.018-.018-.052-.035-.07a1.573 1.573 0 00-.122-.244c0-.714.052-1.393.174-2.003A28.91 28.91 0 002.9 31.314zm39.026 7.996c0-.017.017-.017.017-.034-.017.017-.017.017-.017.034zM40.881 9.256c-.105.018-.192.053-.297.088a14.99 14.99 0 00-.958.313 23.975 23.975 0 00-3.693-4.216c.418 0 .87.035 1.324.122 1.29 1.08 2.491 2.335 3.624 3.693zm-5.349-4.18a21.409 21.409 0 00-3.136-2.231h.645c.087 0 .174.017.26.017.036 0 .07 0 .088.018.035 0 .07 0 .104.017 1.08.61 2.144 1.342 3.171 2.16a6.132 6.132 0 00-1.132.018zm-4.756-2.492c-.035 0-.087.017-.122.017l-.262.052c-.052 0-.087.018-.139.018l-.262.052c-.051.017-.086.017-.139.035a1.429 1.429 0 00-.26.07c-.053.017-.105.017-.158.034-.087.018-.174.053-.244.07l-.156.053c-.087.017-.157.051-.244.07-.053.016-.105.034-.174.052-.088.017-.157.052-.244.086-.053.018-.123.035-.174.053-.07.035-.157.052-.227.087-.07.017-.122.052-.192.07-.07.034-.14.052-.227.086-.07.036-.139.053-.209.088-.069.034-.139.052-.209.087-.07.035-.139.052-.209.087-.07.035-.139.07-.209.087-.07.035-.156.07-.226.105-.07.035-.122.07-.192.087-.07.034-.156.07-.244.105-.07.034-.122.07-.191.086-.088.035-.157.088-.244.122a.827.827 0 01-.174.088.39.39 0 00-.088.051c-.61-.139-1.22-.243-1.83-.33 0 0-.016 0-.016-.017-.07-.036-.122-.053-.192-.088-.087-.035-.157-.07-.244-.104-.052-.018-.104-.053-.157-.07a1.785 1.785 0 01-.261-.122c-.053-.017-.087-.035-.14-.052a2.066 2.066 0 01-.295-.122c-.036-.017-.07-.035-.123-.035a2.27 2.27 0 01-.313-.122c-.035-.017-.07-.017-.105-.035-.07-.017-.14-.052-.209-.07a6.854 6.854 0 011.62-1.306c.872-.523 1.83-.837 2.875-.976a15.51 15.51 0 013.136.749c.627.21 1.237.47 1.847.75a.293.293 0 01-.174.052zM20.322 4.29c-.226.366-.435.766-.627 1.185-.557 1.22-.889 2.63-1.046 4.181a38.933 38.933 0 00-2.107 2.352c-.418.087-.837.192-1.255.296-2.3-1.15-4.495-1.637-6.464-1.498 1.08-2.021 2.44-3.833 4.06-5.348 2.334-.837 4.844-1.203 7.439-1.168zM1.402 21.993a.516.516 0 01.07-.14c.017-.035.034-.087.069-.122.017-.017.017-.035.035-.052.017-.035.035-.087.07-.122.016-.053.052-.087.069-.14.018-.017.018-.034.035-.052l.052-.104c.035 1.097.174 2.195.4 3.292-.173.262-.33.523-.452.82a18.736 18.736 0 01-.349-3.38zm7.77 19.303c.105-.017.191-.052.296-.087.296-.087.627-.191.958-.313a24.014 24.014 0 003.694 4.216c-.418 0-.871-.035-1.324-.122a29.12 29.12 0 01-3.624-3.694zm24.81 6.185h-.053c-.052 0-.122.018-.174.018-.052 0-.122.017-.174.017-.07 0-.122.018-.192.018h-1.255c-.087 0-.156-.018-.243-.018-.035 0-.087 0-.122-.017-.087 0-.175-.018-.261-.018-.035 0-.07-.017-.105-.017-.087-.017-.192-.017-.279-.035-.034 0-.07-.017-.105-.017l-.296-.053c-.034 0-.07-.017-.087-.017l-.313-.052c-.035 0-.053-.017-.087-.017-.105-.018-.21-.053-.314-.07-.017 0-.052-.018-.07-.018-.104-.034-.226-.052-.33-.087-.018 0-.035-.017-.07-.017-.087-.018-.157-.053-.244-.07l.261-.366c.244 0 .47.018.714.018 2.178 0 4.269-.297 6.22-.889-.749.645-1.55 1.22-2.421 1.707zm-4.252-1.22c.227-.365.436-.766.628-1.184.557-1.22.888-2.63 1.045-4.181a38.89 38.89 0 002.108-2.352c.436-.087.854-.192 1.272-.296 2.02 1.01 3.972 1.515 5.784 1.515.227 0 .453-.017.68-.034-1.098 2.038-2.457 3.85-4.077 5.366-2.317.836-4.844 1.22-7.44 1.167zM16.071 3.072l.575-.052c.209-.017.418-.017.627-.017h.593c.104 0 .191.017.296.017.052 0 .122.017.174.017.087 0 .174.018.262.018.052 0 .121.017.191.017.087.018.174.018.261.036.07.017.123.017.192.034l.261.052c.053.018.122.018.174.035.088.018.175.035.28.053a.613.613 0 00.173.034c.088.018.192.053.28.07.052.018.104.035.174.052.104.018.191.052.296.088-.087.121-.192.243-.279.365-2.404-.07-4.739.21-6.934.871.75-.626 1.55-1.201 2.404-1.69zM3.301 32.36c.417 1.01.906 2.02 1.428 3.014-.975-.053-1.655-.244-2.056-.557-.122-.314-.244-.61-.348-.924.07-.453.383-.976.923-1.585.017 0 .035.035.052.052zm17.648 16.395a18.849 18.849 0 01-1.847-.75h.018c.087-.017.174-.017.261-.035a1.05 1.05 0 01.227-.035c.087-.017.174-.034.244-.052.07-.017.157-.035.226-.052.088-.018.175-.035.244-.052.087-.018.157-.035.244-.052.088-.018.157-.035.244-.07.087-.018.157-.053.244-.07.087-.017.157-.052.244-.07a.977.977 0 00.244-.087c.087-.017.156-.052.244-.07.087-.034.174-.052.244-.086.087-.036.156-.053.243-.088l.262-.104c.087-.035.157-.07.244-.087l.261-.105c.088-.035.157-.07.244-.105.087-.034.174-.086.262-.121.086-.035.157-.07.243-.105.087-.035.175-.087.261-.14.088-.034.157-.087.245-.121.087-.052.173-.088.26-.14.053-.034.105-.052.158-.087.61.14 1.22.244 1.83.331.017.018.052.018.069.035.122.052.226.105.348.157.035.017.053.017.087.034.14.053.262.123.4.175.384.157.75.296 1.133.418-.47.523-1.01.959-1.62 1.307-.87.523-1.83.836-2.874.975a17.092 17.092 0 01-3.136-.748zM44.4 38.386a7.391 7.391 0 01-2.073.836c0-.035.017-.052.017-.087.018-.052.018-.104.035-.157.018-.087.035-.192.053-.278.017-.053.017-.122.034-.175.017-.087.017-.174.035-.278.017-.07.017-.122.035-.192 0-.018 0-.052.017-.07a29.151 29.151 0 001.237-3.537c.053-.035.105-.07.174-.104.07-.053.14-.087.21-.14.07-.052.139-.087.191-.14.07-.051.122-.086.192-.138.07-.053.122-.088.192-.14.07-.052.122-.087.174-.14.07-.051.122-.104.191-.138.053-.053.122-.088.175-.14.07-.052.121-.105.192-.157.051-.052.104-.087.156-.14.07-.051.122-.104.191-.156a.525.525 0 00.14-.14c.07-.051.122-.104.192-.173.052-.035.087-.087.14-.122.069-.053.121-.122.19-.174l.123-.122.192-.192c.034-.035.07-.07.104-.122.07-.07.122-.14.192-.192l.104-.104c.07-.07.122-.14.175-.21.034-.034.051-.07.086-.104.07-.07.122-.14.175-.226a.37.37 0 01.07-.088c.052-.07.122-.156.173-.226.018-.017.036-.052.053-.07a18.8 18.8 0 01-.261 2.422 15.112 15.112 0 01-.89 3.101c-.696.924-1.462 1.673-2.386 2.213zm2.405-20.123a.236.236 0 01-.053-.07 38.984 38.984 0 00-1.411-2.996c.976.052 1.672.244 2.056.557.122.314.244.61.348.923-.087.436-.4.976-.94 1.586zm-3.05-5.75A36.85 36.85 0 0041.77 9.71c-.017-.07-.035-.122-.052-.191-.017-.035-.017-.07-.035-.105.75-.122 1.342-.087 1.76.07.261.279.505.557.749.871.087.453.017 1.15-.435 2.16zM6.298 38.038a33.947 33.947 0 002.004 2.823l.052.157c.017.035.035.07.035.104-.749.122-1.342.087-1.76-.07a17.919 17.919 0 01-.749-.87c-.105-.436-.035-1.116.418-2.144zM45.15 14.884a39.018 39.018 0 00-1.185-2.038c.401-.837.575-1.481.628-1.987a21.688 21.688 0 012.561 4.339c-.54-.21-1.237-.296-2.004-.314zM4.903 35.687c.227.4.436.801.68 1.201.174.28.331.558.505.837-.4.819-.575 1.463-.61 1.969a21.72 21.72 0 01-2.56-4.338c.487.208 1.149.313 1.985.33zm35.212 8.066c-.646.366-1.307.697-1.987.975 1.411-1.463 2.613-3.17 3.589-5.034.035 0 .087-.018.122-.018v.035c-.017.07-.035.157-.052.226-.018.07-.035.123-.053.192-.017.07-.034.157-.07.227-.017.07-.034.122-.052.191-.017.07-.052.14-.07.227-.017.052-.034.122-.052.174-.017.07-.052.14-.07.227-.016.052-.034.104-.051.174-.035.087-.07.157-.087.244-.018.052-.035.086-.053.139l-.157.366c-.296.575-.61 1.133-.958 1.655zm7.91-10.575a17.22 17.22 0 00.278-3.136c.122-.192.244-.384.348-.576-.052 1.638-.313 3.119-.784 4.426.07-.244.105-.47.157-.714zm-.036-13.503c-.087-.105-.156-.209-.244-.33-.052-.053-.087-.123-.139-.175-.035-.052-.07-.105-.122-.14a1.954 1.954 0 00-.174-.191.738.738 0 01-.105-.122c-.07-.07-.122-.14-.192-.21v-.016c.401-.454.697-.854.89-1.238a15.15 15.15 0 01.661 3.294c-.157-.28-.366-.575-.575-.872zM41.561 9.1c-.018-.052-.036-.105-.07-.157-.035-.07-.053-.14-.087-.209-.035-.07-.053-.14-.088-.192-.034-.07-.052-.122-.087-.191-.052-.122-.122-.262-.174-.384-.157-.33-.33-.644-.505-.94a15.102 15.102 0 012.404 2.003c-.383-.052-.854-.035-1.394.07zm-8.939-6.656h-.383c-.087 0-.174 0-.278.017h-.122c-.035 0-.088 0-.122.018a18.62 18.62 0 00-2.492-1.08c-.383-.14-.766-.244-1.167-.348.331.035.644.086.958.139.07.017.14.017.192.035 1.115.244 2.247.644 3.414 1.22zm-26.97 9.722a7.385 7.385 0 012.074-.836v.017c-.017.07-.035.14-.035.227a1.04 1.04 0 00-.035.226c-.017.07-.017.14-.035.226-.017.07-.017.157-.035.245-.017.07-.017.156-.034.226v.07a24.269 24.269 0 00-1.255 3.536l-.157.105s-.017 0-.017.018c-.07.052-.14.087-.209.139-.053.035-.122.087-.175.122 0 0-.017 0-.017.017-.07.052-.139.087-.191.14-.053.034-.122.087-.175.122 0 0-.017 0-.017.017-.07.052-.122.105-.192.14-.052.052-.122.086-.174.139l-.017.017a1.266 1.266 0 01-.174.14c-.053.052-.122.087-.175.139l-.017.017c-.053.052-.105.105-.175.14-.051.052-.104.087-.174.139l-.017.018a1.082 1.082 0 01-.157.139 1.083 1.083 0 01-.157.14l-.017.017a1.153 1.153 0 01-.157.14l-.157.156c-.052.035-.087.087-.122.122l-.017.017-.14.14c-.017.017-.035.034-.052.07a.747.747 0 00-.104.121l-.122.122c-.07.07-.122.14-.175.21a.773.773 0 00-.104.121c-.07.07-.122.14-.174.227-.035.034-.053.07-.087.105-.053.07-.122.156-.174.226-.018.035-.053.07-.07.104-.018.018-.035.052-.052.07.034-.82.122-1.62.26-2.421.193-1.08.489-2.109.89-3.102a7.229 7.229 0 012.317-2.23zM1.507 30.041c.174.296.348.575.558.837.087.104.156.21.244.33.034.036.052.07.086.106.053.07.105.139.175.208.035.035.07.088.104.122.053.07.105.123.157.192.035.053.087.087.122.14.017.034.052.052.07.087-.401.453-.697.853-.889 1.237a15.094 15.094 0 01-.662-3.293c.018 0 .035.017.035.034zm5.889 11.534c.33 0 .697-.035 1.097-.104.018.052.035.104.07.157.035.07.052.139.087.226.018.07.053.122.07.174.035.07.052.14.087.21.052.121.122.26.174.383.157.33.331.644.505.94a15.132 15.132 0 01-2.404-2.003c.104 0 .21.017.314.017zm41.239-17.144A8.39 8.39 0 0049 22.463c.017.07.034.122.07.191.017.035.017.088.034.122l.053.21c.017.034.017.086.034.121l.053.21c.017.052.017.086.035.139.017.07.034.139.034.191.017.053.017.105.017.157.018.07.018.122.036.192 0 .053.017.104.017.174 0 .052.018.122.018.174 0 .07.017.14.017.21v.052c0 .209.017.418.017.627a8.112 8.112 0 01-.4 2.404 22.1 22.1 0 00-.401-3.206zm-48.017.802v-.122c0-.07 0-.122.018-.192 0-.052 0-.087.017-.14 0-.069.018-.12.018-.19 0-.053.017-.105.017-.14 0-.053.018-.122.018-.174 0-.052.017-.087.017-.14V24.1c.018-.052.018-.104.035-.157 0-.034.017-.086.017-.122 0-.017 0-.034.017-.052.018-.052.018-.087.035-.14.018-.034.018-.069.036-.12 0-.018.017-.053.017-.07.017-.053.017-.088.035-.14.017-.035.017-.07.034-.104 0-.035.018-.053.018-.088a.326.326 0 00.035-.122c0-.017 0-.017.017-.035a22.87 22.87 0 00.4 3.171 8.422 8.422 0 00-.365 1.969c-.017-.035-.035-.07-.035-.122a.958.958 0 00-.07-.209c-.017-.035-.017-.087-.034-.122-.018-.07-.035-.122-.052-.192v-.017c-.018-.052-.018-.087-.036-.14a.624.624 0 01-.035-.173v-.018c-.017-.052-.017-.087-.034-.14-.017-.052-.017-.104-.035-.173v-.054c0-.035-.017-.087-.017-.122 0-.052-.018-.104-.018-.157v-.069c0-.035-.017-.07-.017-.105 0-.052-.018-.104-.018-.157v-.122c0-.139-.017-.278-.017-.418v-.052c-.018-.07-.018-.174-.018-.296zM17.5 48.109c.156 0 .313 0 .453-.018.052 0 .104 0 .157-.017.07 0 .156 0 .226-.018.802.419 1.638.784 2.492 1.08.4.14.8.262 1.202.366-.087-.017-.192-.017-.279-.034-.349-.053-.68-.105-.976-.157-1.08-.244-2.212-.645-3.38-1.202h.105zm23.38-4.827a9.86 9.86 0 00.489-.975c.052-.122.104-.244.156-.383.035-.105.087-.21.122-.314.018-.017.018-.052.035-.07.035-.104.07-.208.122-.33.018-.018.018-.053.035-.07l.104-.314c.018-.035.018-.07.036-.087.035-.104.052-.209.086-.314.018-.035.018-.07.035-.104.035-.105.053-.192.07-.296.017-.035.017-.088.035-.122l.052-.262a7.424 7.424 0 002.422-.923 6.95 6.95 0 001.394-1.08c-.088.174-.192.348-.296.523-.331.505-.697 1.08-1.063 1.602a16.132 16.132 0 01-3.833 3.52zM39.139 5.755a8.315 8.315 0 00-1.69-.558 24.56 24.56 0 00-2.856-2.108c.034 0 .07.018.104.018.035 0 .07.017.104.034.07.018.157.035.227.052.035.018.07.018.104.035.07.018.157.035.227.07.035.017.07.035.122.035.07.017.14.052.209.07.035.017.087.034.122.052.07.017.14.052.192.07.052.017.087.035.139.052a.816.816 0 01.174.087c.052.035.122.052.174.087.018 0 .035.017.052.017.245.14.506.28.767.436.697.418 1.29.94 1.83 1.55zM33.86 2.532c-.035 0-.088-.018-.122-.018-.035 0-.07 0-.105-.017l-.052-.018c-.122-.07-.244-.14-.366-.192.122.053.261.088.383.14.087.034.174.07.279.105h-.017zM23.04.946a15.28 15.28 0 011.55-.017 7.5 7.5 0 00-1.62.714 7.622 7.622 0 00-1.864 1.568 2.161 2.161 0 00-.174-.052c-.017 0-.035-.018-.052-.018a8.69 8.69 0 01-.349-.105c-.017 0-.034 0-.034-.017-.122-.034-.244-.07-.367-.087h-.017c-.122-.035-.261-.052-.383-.087h-.018a12.59 12.59 0 00-2.752-.261 15.337 15.337 0 014.198-1.429c.628-.07 1.342-.157 1.882-.21zM12.674 4.22l.017-.017a8.153 8.153 0 012.283-.923c-.82.54-1.586 1.15-2.3 1.829a17.41 17.41 0 00-2.108.906 7.965 7.965 0 012.108-1.795zm-1.76 40.58a7.541 7.541 0 001.673.557 24.539 24.539 0 002.857 2.108c-.035 0-.07-.017-.087-.017-.052-.018-.104-.018-.157-.035-.07-.018-.122-.035-.192-.053l-.156-.052c-.053-.017-.123-.034-.174-.052l-.157-.053c-.053-.017-.105-.034-.175-.051-.052-.018-.121-.053-.174-.07l-.157-.053c-.07-.017-.122-.052-.191-.087a1.217 1.217 0 00-.14-.052l-.209-.105-.104-.052c-.088-.052-.192-.105-.28-.156-.051-.035-.086-.053-.138-.088a8.423 8.423 0 01-2.04-1.69zm26.325 1.637c-.122.07-.244.122-.365.191l-.105.053c-.052.018-.105.052-.14.07-.052.017-.104.052-.156.07-.052.017-.105.052-.157.07-.052.016-.104.051-.157.069-.052.017-.121.035-.174.07l-.157.052a2.927 2.927 0 01-.191.052c-.052.018-.105.035-.14.052-.07.017-.122.035-.191.052-.053.018-.105.036-.157.036-.018 0-.053.017-.07.017a19.454 19.454 0 002.317-1.83 17.456 17.456 0 002.109-.906 8.444 8.444 0 01-2.126 1.812.524.524 0 00-.14.07zM9.19 7.288a10.1 10.1 0 00-.487.975c-.053.122-.105.262-.157.384-.018.017-.018.052-.035.07-.035.104-.087.209-.122.33-.018.035-.035.087-.053.122-.034.087-.07.175-.104.28a2.218 2.218 0 00-.052.173 1.308 1.308 0 00-.07.244c-.017.07-.035.122-.052.192-.018.07-.052.157-.07.226l-.052.21c-.018.07-.035.139-.052.226-.018.07-.035.14-.053.227v.035a7.418 7.418 0 00-2.421.922 6.964 6.964 0 00-1.394 1.08l.47-.835c.331-.506.697-1.028 1.063-1.499A13.96 13.96 0 019.19 7.288zm-7.021 9.408c-.052.227-.104.453-.14.68a17.065 17.065 0 00-.278 3.135c-.017.036-.035.053-.052.088a1.25 1.25 0 00-.087.139c-.035.07-.088.14-.122.209-.018.053-.053.087-.07.14.052-1.551.296-2.962.714-4.217 0-.052.018-.104.035-.174zM15.984 2.653l-.052.035c-.053 0-.122.018-.175.018.14-.053.262-.105.384-.157.052-.017.087-.035.14-.052a.967.967 0 00-.297.156zm24.095 3.572l-.052-.035c-.104-.14-.21-.296-.33-.435l.017.017c.33.262.714.575 1.097.888a27.826 27.826 0 00-.732-.435zM16.21 48.04c.07.017.14.017.21.017l.052.035c.105.053.209.122.313.174-.122-.035-.243-.087-.365-.121a.587.587 0 00-.21-.105zm17.58.035c-.018 0-.018 0-.035.017.105-.052.209-.122.313-.174l.053-.017h.052c.07 0 .122-.018.192-.035-.21.07-.401.157-.575.209zM9.99 6.05a9.19 9.19 0 00-.313.435l-.052.035c-.262.157-.505.314-.75.47.227-.209.471-.417.698-.609.139-.105.278-.21.418-.331zM.863 28.752c.034.088.07.157.104.244v.018l.052.104v.07c0 .244.018.505.035.766l-.017-.104c-.018-.088-.035-.192-.053-.296-.035-.261-.07-.523-.121-.802zm8.362 15.105c.244.175.506.332.767.471l.052.035c.105.157.226.296.331.436-.018-.018-.035-.018-.052-.036l-.035-.035c-.349-.26-.714-.575-1.063-.87zm30.855.645c.105-.14.21-.278.314-.435l.052-.035c.28-.157.54-.331.802-.505l-.68.575c-.157.139-.331.26-.488.4zM.826 22.167l.036-.28c.017-.086.017-.173.034-.26l.105-.593c-.018.279-.018.558-.018.854v.07c-.07.156-.121.296-.192.453 0-.07.018-.122.018-.192 0-.035 0-.052.017-.052z" fill="#fff"/></g></g><path d="M63.88 23.143V11.507h4.807c.872 0 1.624.17 2.256.51a3.582 3.582 0 011.472 1.416c.344.602.517 1.303.517 2.102 0 .803-.176 1.506-.529 2.108a3.544 3.544 0 01-1.494 1.392c-.648.33-1.417.494-2.307.494h-2.966v-2.216h2.444c.424 0 .778-.074 1.062-.221.288-.148.506-.354.654-.62.147-.269.221-.581.221-.937 0-.36-.074-.67-.221-.932a1.488 1.488 0 00-.654-.614c-.288-.144-.642-.216-1.063-.216h-1.386v9.37h-2.812zm10.198 0v-8.728h2.699v1.591h.091c.159-.575.419-1.003.778-1.284a1.97 1.97 0 011.256-.426c.129 0 .261.01.398.029.136.015.263.04.38.074v2.414a2.654 2.654 0 00-.522-.108 4.635 4.635 0 00-.569-.04c-.329 0-.626.074-.891.222a1.592 1.592 0 00-.62.608c-.148.258-.221.56-.221.91v4.738h-2.779zm10.115.165c-.916 0-1.704-.188-2.363-.563a3.881 3.881 0 01-1.517-1.58c-.353-.677-.529-1.463-.529-2.357 0-.898.176-1.684.529-2.358a3.836 3.836 0 011.517-1.58c.659-.379 1.447-.568 2.363-.568.917 0 1.703.19 2.358.568a3.79 3.79 0 011.517 1.58c.356.674.534 1.46.534 2.358 0 .893-.178 1.68-.534 2.358a3.834 3.834 0 01-1.517 1.58c-.655.374-1.441.562-2.358.562zm.017-2.097c.334 0 .616-.102.847-.307.231-.204.407-.488.528-.852.125-.364.188-.784.188-1.261 0-.485-.063-.91-.188-1.273-.12-.364-.297-.648-.528-.852a1.232 1.232 0 00-.847-.307c-.344 0-.636.102-.875.306-.234.205-.414.49-.54.853a4.03 4.03 0 00-.181 1.273c0 .477.06.897.182 1.26.125.365.304.649.54.853.238.205.53.307.874.307zm5.576-6.795h2.778v9.09c0 .72-.148 1.292-.443 1.716-.292.425-.705.73-1.239.915-.534.186-1.165.279-1.892.279a6.41 6.41 0 01-.278-.006 44.146 44.146 0 00-.284-.012v-2.107l.181.017c.054.003.107.005.16.005.382 0 .647-.072.795-.216.148-.14.222-.356.222-.647v-9.034zm1.386-1.018c-.39 0-.725-.128-1.006-.386a1.244 1.244 0 01-.42-.943c0-.364.14-.674.42-.932.28-.261.616-.392 1.006-.392.394 0 .73.13 1.006.392.28.258.42.568.42.932 0 .367-.14.682-.42.943a1.422 1.422 0 01-1.006.386zm7 9.91c-.913 0-1.7-.18-2.364-.54a3.734 3.734 0 01-1.522-1.551c-.353-.675-.529-1.476-.529-2.404 0-.901.178-1.69.534-2.363a3.857 3.857 0 011.506-1.58c.648-.379 1.411-.568 2.29-.568.621 0 1.19.097 1.704.29.516.193.961.479 1.336.858.375.378.666.846.875 1.403.208.553.312 1.188.312 1.903v.694h-7.585v-1.614h5a1.565 1.565 0 00-.21-.79 1.428 1.428 0 00-.563-.54 1.624 1.624 0 00-.812-.198c-.31 0-.59.07-.836.21a1.58 1.58 0 00-.813 1.364v1.642a2 2 0 00.211.937c.14.265.34.472.597.62.257.147.564.22.92.22.246 0 .47-.033.67-.101.201-.069.374-.169.518-.302.144-.132.252-.295.324-.488l2.551.074a3.154 3.154 0 01-.699 1.494c-.356.42-.824.748-1.404.983-.58.231-1.25.347-2.01.347zm9.395 0c-.92 0-1.71-.19-2.369-.569a3.846 3.846 0 01-1.512-1.58c-.352-.677-.528-1.461-.528-2.351 0-.894.176-1.678.528-2.353a3.874 3.874 0 011.517-1.585c.659-.379 1.445-.568 2.358-.568.807 0 1.51.146 2.108.437a3.347 3.347 0 011.409 1.239c.341.53.521 1.153.54 1.87h-2.596c-.053-.448-.205-.798-.455-1.052-.246-.254-.568-.38-.966-.38a1.37 1.37 0 00-.846.272c-.243.178-.432.444-.569.796-.132.348-.199.78-.199 1.295 0 .515.067.95.199 1.307.137.352.326.62.569.801.242.178.524.267.846.267a1.306 1.306 0 001.176-.648c.129-.215.21-.477.245-.784h2.596c-.026.72-.206 1.349-.54 1.887a3.338 3.338 0 01-1.392 1.255c-.594.296-1.301.444-2.119.444zm10.159-8.893v2.046h-5.505v-2.045h5.505zm-4.352-2.09h2.778v8.073c0 .171.027.31.08.415a.497.497 0 00.244.222c.106.041.233.062.381.062.106 0 .218-.01.335-.028.121-.023.212-.042.273-.057l.42 2.006c-.132.038-.32.085-.562.142a4.677 4.677 0 01-.858.108c-.652.03-1.21-.046-1.676-.227a2.174 2.174 0 01-1.063-.864c-.242-.39-.36-.88-.352-1.472v-8.38zM63.881 27.506h3.483l2.954 7.205h.136l2.955-7.204h3.483v11.636h-2.739v-7.148h-.096L71.26 39.07h-1.75l-2.795-7.114h-.097v7.188H63.88V27.506zm18.605 11.802c-.913 0-1.7-.18-2.364-.54a3.733 3.733 0 01-1.522-1.551c-.353-.675-.529-1.476-.529-2.404 0-.901.178-1.69.534-2.363a3.855 3.855 0 011.506-1.58c.648-.379 1.41-.568 2.29-.568.62 0 1.189.096 1.704.29.515.193.96.479 1.335.858.375.378.667.846.875 1.403.209.553.313 1.188.313 1.904v.693h-7.585v-1.614h5a1.565 1.565 0 00-.21-.79 1.427 1.427 0 00-.563-.54 1.624 1.624 0 00-.813-.198c-.31 0-.589.07-.835.21a1.58 1.58 0 00-.813 1.364v1.642a2 2 0 00.21.937c.141.265.34.472.597.62.258.147.565.22.921.22.246 0 .47-.033.67-.101.201-.069.374-.169.518-.302.143-.132.251-.295.323-.488l2.552.074a3.156 3.156 0 01-.7 1.494c-.355.42-.823.748-1.403.983-.58.231-1.25.347-2.011.347zm5.32-.165v-8.727h2.7v1.59h.09c.16-.575.42-1.003.78-1.284a1.963 1.963 0 011.255-.426c.129 0 .261.01.397.029.137.015.264.04.381.073v2.415a2.653 2.653 0 00-.523-.108 4.635 4.635 0 00-.568-.04c-.33 0-.627.074-.892.222a1.592 1.592 0 00-.62.608c-.147.258-.22.56-.22.91v4.738h-2.78zm6.495 0v-8.727h2.779v8.727H94.3zm1.392-9.745a1.43 1.43 0 01-1.005-.386 1.244 1.244 0 01-.42-.943c0-.364.14-.674.42-.932.28-.261.615-.392 1.005-.392.394 0 .73.13 1.006.392.28.258.42.568.42.932 0 .367-.14.682-.42.943a1.422 1.422 0 01-1.006.386zm6.103 9.87a3.216 3.216 0 01-1.756-.5c-.527-.334-.947-.834-1.261-1.5-.315-.667-.472-1.495-.472-2.483 0-1.027.163-1.871.489-2.534.325-.663.752-1.154 1.278-1.472.53-.318 1.1-.477 1.71-.477.459 0 .851.08 1.176.239.326.155.595.356.807.602.212.246.373.502.483.767h.057v-4.404h2.778v11.637h-2.75v-1.415h-.085c-.117.269-.284.52-.5.756a2.413 2.413 0 01-.812.568c-.322.144-.703.216-1.142.216zm.966-2.165c.337 0 .625-.095.863-.284.239-.193.423-.464.551-.813.129-.348.194-.757.194-1.227 0-.477-.065-.888-.194-1.233-.125-.344-.308-.61-.551-.795a1.362 1.362 0 00-.863-.279c-.345 0-.637.095-.875.285-.239.189-.421.456-.546.8-.121.345-.182.752-.182 1.222s.063.879.188 1.227c.125.349.305.62.54.813.238.19.53.284.875.284zm5.841 2.04v-8.727h2.778v8.727h-2.778zm1.392-9.745c-.391 0-.726-.128-1.006-.386a1.245 1.245 0 01-.421-.943c0-.364.141-.674.421-.932.28-.261.615-.392 1.006-.392.394 0 .729.13 1.005.392.281.258.421.568.421.932 0 .367-.14.682-.421.943a1.42 1.42 0 01-1.005.386zm5.375 9.893c-.557 0-1.051-.093-1.483-.279a2.31 2.31 0 01-1.017-.852c-.247-.383-.37-.862-.37-1.438 0-.485.086-.894.256-1.227.17-.333.405-.604.705-.812a3.315 3.315 0 011.034-.472 6.7 6.7 0 011.25-.222 17.4 17.4 0 001.199-.142c.303-.053.522-.127.659-.221a.478.478 0 00.21-.415v-.028c0-.292-.101-.517-.301-.676-.201-.16-.472-.24-.813-.24-.367 0-.663.08-.886.24a1.046 1.046 0 00-.426.659l-2.563-.091c.076-.53.271-1.004.585-1.42.319-.421.754-.75 1.307-.99.557-.242 1.226-.363 2.006-.363.557 0 1.07.066 1.54.199a3.83 3.83 0 011.227.568c.348.246.617.55.807.909.193.36.29.77.29 1.233v5.932h-2.614v-1.216h-.068a2.478 2.478 0 01-.597.75 2.374 2.374 0 01-.846.46 3.599 3.599 0 01-1.091.154zm.858-1.819c.299 0 .568-.06.806-.181.243-.122.436-.288.58-.5a1.32 1.32 0 00.216-.75v-.83c-.08.042-.176.08-.29.114a6.373 6.373 0 01-.773.176c-.14.023-.274.043-.403.062a2.5 2.5 0 00-.67.194 1.06 1.06 0 00-.421.34.833.833 0 00-.142.489c0 .288.102.508.307.66.208.15.471.226.79.226zm8.595-3.306v4.977h-2.779v-8.727h2.642v1.602h.097a2.45 2.45 0 01.989-1.256c.466-.307 1.021-.46 1.664-.46.614 0 1.146.138 1.597.415a2.76 2.76 0 011.057 1.147c.254.489.379 1.061.375 1.716v5.563h-2.779v-5.017c.004-.485-.119-.864-.369-1.137-.246-.272-.589-.409-1.028-.409a1.52 1.52 0 00-.773.194c-.22.124-.39.304-.511.54-.118.234-.178.518-.182.852z" fill="#fff"/><defs><clipPath id="clip0_681_13094"><path fill="#fff" transform="translate(0 .143)" d="M0 0h50v50H0z"/></clipPath></defs></svg>